<mxfile host="65bd71144e" modified="2020-11-17T09:35:58.354Z" agent="5.0 (Windows NT 10.0; Win64; x64) AppleWebKit/537.36 (KHTML, like Gecko) Code/1.51.1 Chrome/83.0.4103.122 Electron/9.3.3 Safari/537.36" etag="_EkdApF29cGsE732QJtc" version="13.6.5">
    <diagram id="ASGxeSuTTBjw75ixnw_O" name="L1">
        <mxGraphModel dx="1128" dy="1132" grid="1" gridSize="10" guides="1" tooltips="1" connect="1" arrows="1" fold="1" page="1" pageScale="1" pageWidth="1654" pageHeight="1169" background="#ffffff" math="0" shadow="0" extFonts="Roboto^https://fonts.googleapis.com/css?family=Roboto">
            <root>
                <mxCell id="0"/>
                <mxCell id="_cwqi-WOkN7Hi492-8AW-15" value="Frame" style="" parent="0"/>
                <mxCell id="_cwqi-WOkN7Hi492-8AW-17" value="" style="rounded=0;whiteSpace=wrap;html=1;shadow=0;strokeColor=#333333;strokeWidth=3;fillColor=none;" parent="_cwqi-WOkN7Hi492-8AW-15" vertex="1">
                    <mxGeometry x="40" y="60" width="1560" height="1080" as="geometry"/>
                </mxCell>
                <mxCell id="_cwqi-WOkN7Hi492-8AW-22" value="" style="rounded=0;whiteSpace=wrap;html=1;shadow=0;strokeColor=#333333;strokeWidth=3;fillColor=#f5f5f5;fontColor=#333333;" parent="_cwqi-WOkN7Hi492-8AW-15" vertex="1">
                    <mxGeometry x="1440" y="1100" width="160" height="40" as="geometry"/>
                </mxCell>
                <mxCell id="_cwqi-WOkN7Hi492-8AW-24" value="&lt;b&gt;&lt;font style=&quot;font-size: 17px&quot;&gt;Version: 0.3&lt;/font&gt;&lt;/b&gt;" style="text;html=1;strokeColor=none;fillColor=none;align=center;verticalAlign=middle;whiteSpace=wrap;rounded=0;shadow=0;" parent="_cwqi-WOkN7Hi492-8AW-15" vertex="1">
                    <mxGeometry x="1440" y="1100" width="160" height="40" as="geometry"/>
                </mxCell>
                <mxCell id="_cwqi-WOkN7Hi492-8AW-16" value="&lt;p style=&quot;line-height: 90%&quot;&gt;&lt;/p&gt;&lt;div&gt;&lt;b&gt;&lt;font style=&quot;font-size: 30px&quot; color=&quot;#000000&quot;&gt;Agence Wyoming&lt;/font&gt;&lt;/b&gt;&lt;/div&gt;&lt;div&gt;&lt;font color=&quot;#000000&quot;&gt;&lt;b&gt;&lt;font style=&quot;font-size: 22px&quot;&gt;wyoming.america.lan&lt;/font&gt;&lt;/b&gt;&lt;br&gt;&lt;/font&gt;&lt;/div&gt;&lt;div&gt;&lt;b style=&quot;text-align: center&quot;&gt;&lt;font style=&quot;font-size: 22px&quot; color=&quot;#000000&quot;&gt;Supernet 172.20.128.0/19&lt;/font&gt;&lt;/b&gt;&lt;b&gt;&lt;font style=&quot;font-size: 22px&quot;&gt;&lt;br&gt;&lt;/font&gt;&lt;/b&gt;&lt;/div&gt;&lt;b&gt;&lt;div&gt;&lt;b&gt;&lt;font color=&quot;#666666&quot; size=&quot;1&quot;&gt;&lt;i style=&quot;font-size: 18px&quot;&gt;Campus Technique - 2/09C&lt;/i&gt;&lt;/font&gt;&lt;/b&gt;&lt;/div&gt;&lt;/b&gt;&lt;p&gt;&lt;/p&gt;" style="text;html=1;strokeColor=none;fillColor=none;align=left;verticalAlign=middle;whiteSpace=wrap;rounded=0;shadow=1;" parent="_cwqi-WOkN7Hi492-8AW-15" vertex="1">
                    <mxGeometry x="80" y="80" width="350" height="80" as="geometry"/>
                </mxCell>
                <mxCell id="_cwqi-WOkN7Hi492-8AW-18" value="" style="rounded=0;whiteSpace=wrap;html=1;shadow=0;strokeColor=#333333;strokeWidth=3;fillColor=#f5f5f5;fontColor=#333333;" parent="_cwqi-WOkN7Hi492-8AW-15" vertex="1">
                    <mxGeometry x="40" y="1100" width="240" height="40" as="geometry"/>
                </mxCell>
                <mxCell id="_cwqi-WOkN7Hi492-8AW-19" value="&lt;b&gt;&lt;font style=&quot;font-size: 17px&quot; color=&quot;#000000&quot;&gt;Projet: CyberSec1 20-21&lt;/font&gt;&lt;/b&gt;" style="text;html=1;strokeColor=none;fillColor=none;align=center;verticalAlign=middle;whiteSpace=wrap;rounded=0;shadow=0;" parent="_cwqi-WOkN7Hi492-8AW-15" vertex="1">
                    <mxGeometry x="40" y="1100" width="240" height="40" as="geometry"/>
                </mxCell>
                <mxCell id="_cwqi-WOkN7Hi492-8AW-25" value="" style="rounded=0;whiteSpace=wrap;html=1;shadow=0;strokeColor=#333333;strokeWidth=3;fillColor=#f5f5f5;fontColor=#333333;" parent="_cwqi-WOkN7Hi492-8AW-15" vertex="1">
                    <mxGeometry x="1200" y="1100" width="240" height="40" as="geometry"/>
                </mxCell>
                <mxCell id="_cwqi-WOkN7Hi492-8AW-27" value="&lt;b&gt;&lt;font style=&quot;font-size: 17px&quot; color=&quot;#000000&quot;&gt;Auteur: Simon Baleine&lt;/font&gt;&lt;/b&gt;" style="text;html=1;strokeColor=none;fillColor=none;align=center;verticalAlign=middle;whiteSpace=wrap;rounded=0;shadow=0;" parent="_cwqi-WOkN7Hi492-8AW-15" vertex="1">
                    <mxGeometry x="1200" y="1100" width="240" height="40" as="geometry"/>
                </mxCell>
                <mxCell id="s_L9ybfpZtmnkDclr_Vn-8" value="&lt;b&gt;&lt;font color=&quot;#6c8ebf&quot;&gt;&lt;font style=&quot;font-size: 22px&quot;&gt;VLAN VoIP&lt;/font&gt;&lt;br&gt;172.20.131.0/24&lt;/font&gt;&lt;/b&gt;" style="ellipse;whiteSpace=wrap;html=1;strokeWidth=3;fillColor=#dae8fc;strokeColor=#6c8ebf;shadow=1;fontSize=30;" parent="_cwqi-WOkN7Hi492-8AW-15" vertex="1">
                    <mxGeometry x="390" y="580.0000000000001" width="260" height="150" as="geometry"/>
                </mxCell>
                <mxCell id="s_L9ybfpZtmnkDclr_Vn-10" value="" style="endArrow=none;html=1;strokeWidth=3;entryX=0;entryY=0.98;entryDx=0;entryDy=0;entryPerimeter=0;strokeColor=#6C8EBF;" parent="_cwqi-WOkN7Hi492-8AW-15" source="s_L9ybfpZtmnkDclr_Vn-11" target="Jc9i8-Dtpv8Or8JxEpXH-12" edge="1">
                    <mxGeometry width="50" height="50" relative="1" as="geometry">
                        <mxPoint x="720" y="495.13929618768316" as="sourcePoint"/>
                        <mxPoint x="820" y="508.33577712609963" as="targetPoint"/>
                    </mxGeometry>
                </mxCell>
                <mxCell id="s_L9ybfpZtmnkDclr_Vn-11" value="&lt;b&gt;&lt;font color=&quot;#ffffff&quot;&gt;31&lt;/font&gt;&lt;/b&gt;" style="rounded=0;whiteSpace=wrap;html=1;shadow=0;strokeWidth=1;fontFamily=Helvetica;dashed=1;strokeColor=#FFFFFF;fillColor=#6C8EBF;" parent="_cwqi-WOkN7Hi492-8AW-15" vertex="1">
                    <mxGeometry x="700" y="555.0000000000001" width="40" height="25" as="geometry"/>
                </mxCell>
                <mxCell id="s_L9ybfpZtmnkDclr_Vn-12" value="" style="endArrow=none;html=1;strokeWidth=3;entryX=0;entryY=0.98;entryDx=0;entryDy=0;entryPerimeter=0;strokeColor=#6C8EBF;" parent="_cwqi-WOkN7Hi492-8AW-15" source="s_L9ybfpZtmnkDclr_Vn-8" target="s_L9ybfpZtmnkDclr_Vn-11" edge="1">
                    <mxGeometry width="50" height="50" relative="1" as="geometry">
                        <mxPoint x="623.8451020760579" y="609.8810935807473" as="sourcePoint"/>
                        <mxPoint x="810" y="529" as="targetPoint"/>
                    </mxGeometry>
                </mxCell>
                <mxCell id="1" style="" parent="0"/>
                <mxCell id="_cwqi-WOkN7Hi492-8AW-7" value="" style="rounded=0;whiteSpace=wrap;html=1;fillColor=#d5e8d4;strokeColor=#82b366;dashed=1;strokeWidth=3;" parent="1" vertex="1">
                    <mxGeometry x="1200" y="440" width="300" height="400" as="geometry"/>
                </mxCell>
                <mxCell id="Gddqi87hZryERaUusIdy-6" value="&lt;font style=&quot;font-size: 26px&quot; color=&quot;#666666&quot;&gt;WAN&lt;/font&gt;" style="ellipse;shape=cloud;whiteSpace=wrap;html=1;fillColor=#f5f5f5;strokeColor=#666666;fontColor=#333333;strokeWidth=2;" parent="1" vertex="1">
                    <mxGeometry x="780" y="50" width="290" height="210" as="geometry"/>
                </mxCell>
                <mxCell id="Gddqi87hZryERaUusIdy-29" value="" style="endArrow=none;html=1;strokeColor=#F1C40F;strokeWidth=3;fontFamily=Helvetica;fontSize=16;fontColor=#C0392B;entryX=0.5;entryY=1;entryDx=0;entryDy=0;entryPerimeter=0;fillColor=#f5f5f5;" parent="1" edge="1">
                    <mxGeometry width="50" height="50" relative="1" as="geometry">
                        <mxPoint x="860" y="480" as="sourcePoint"/>
                        <mxPoint x="860" y="244.24" as="targetPoint"/>
                    </mxGeometry>
                </mxCell>
                <mxCell id="_cwqi-WOkN7Hi492-8AW-77" value="&lt;b&gt;&lt;i&gt;&lt;font style=&quot;font-size: 20px&quot;&gt;LÃ‰GENDE&lt;/font&gt;&lt;/i&gt;&lt;/b&gt;" style="rounded=0;whiteSpace=wrap;html=1;shadow=1;strokeColor=#666666;strokeWidth=1;fontFamily=Helvetica;fontColor=#333333;fillColor=#f5f5f5;glass=0;labelBackgroundColor=none;" parent="1" vertex="1">
                    <mxGeometry x="440" y="880" width="160" height="40" as="geometry"/>
                </mxCell>
                <mxCell id="_cwqi-WOkN7Hi492-8AW-78" value="" style="rounded=0;whiteSpace=wrap;html=1;shadow=1;fillColor=#f5f5f5;fontFamily=Lucida Console;fontSize=12;fontColor=#333333;align=center;strokeColor=#666666;strokeWidth=1;glass=0;labelBackgroundColor=none;connectable=0;" parent="1" vertex="1">
                    <mxGeometry x="440" y="920" width="200" height="120" as="geometry"/>
                </mxCell>
                <mxCell id="_cwqi-WOkN7Hi492-8AW-79" value="&lt;b&gt;&lt;font color=&quot;#d79b00&quot;&gt;VLAN 11&lt;/font&gt;&lt;/b&gt;" style="text;html=1;strokeColor=none;fillColor=none;align=center;verticalAlign=middle;whiteSpace=wrap;rounded=0;shadow=1;fontFamily=Helvetica;fontSize=16;fontColor=#C0392B;" parent="1" vertex="1">
                    <mxGeometry x="520" y="960" width="80" height="40" as="geometry"/>
                </mxCell>
                <mxCell id="_cwqi-WOkN7Hi492-8AW-80" value="" style="endArrow=none;html=1;strokeColor=#9B59B6;strokeWidth=3;fontFamily=Helvetica;fontSize=16;fontColor=#C0392B;" parent="1" edge="1">
                    <mxGeometry width="50" height="50" relative="1" as="geometry">
                        <mxPoint x="515.8333333333335" y="939.8000000000002" as="sourcePoint"/>
                        <mxPoint x="450.83333333333303" y="939.8000000000002" as="targetPoint"/>
                    </mxGeometry>
                </mxCell>
                <mxCell id="_cwqi-WOkN7Hi492-8AW-81" value="&lt;font color=&quot;#9b59b6&quot;&gt;&lt;b&gt;VLAN 10&lt;/b&gt;&lt;/font&gt;" style="text;html=1;strokeColor=none;fillColor=none;align=center;verticalAlign=middle;whiteSpace=wrap;rounded=0;shadow=1;fontFamily=Helvetica;fontSize=16;fontColor=#C0392B;" parent="1" vertex="1">
                    <mxGeometry x="520" y="920" width="80" height="40" as="geometry"/>
                </mxCell>
                <mxCell id="_cwqi-WOkN7Hi492-8AW-82" value="" style="endArrow=none;html=1;strokeWidth=3;fontFamily=Helvetica;fontSize=16;fontColor=#C0392B;strokeColor=#D79B00;" parent="1" edge="1">
                    <mxGeometry width="50" height="50" relative="1" as="geometry">
                        <mxPoint x="515.8333333333335" y="980" as="sourcePoint"/>
                        <mxPoint x="450.83333333333303" y="980" as="targetPoint"/>
                    </mxGeometry>
                </mxCell>
                <mxCell id="_cwqi-WOkN7Hi492-8AW-83" value="&lt;b&gt;&lt;font color=&quot;#f1c40f&quot;&gt;TRUNK&lt;/font&gt;&lt;/b&gt;" style="text;html=1;strokeColor=none;fillColor=none;align=center;verticalAlign=middle;whiteSpace=wrap;rounded=0;shadow=1;fontFamily=Helvetica;fontSize=16;fontColor=#C0392B;" parent="1" vertex="1">
                    <mxGeometry x="520" y="1000" width="80" height="40" as="geometry"/>
                </mxCell>
                <mxCell id="_cwqi-WOkN7Hi492-8AW-84" value="" style="endArrow=none;html=1;strokeColor=#F1C40F;strokeWidth=3;fontFamily=Helvetica;fontSize=16;fontColor=#C0392B;" parent="1" edge="1">
                    <mxGeometry width="50" height="50" relative="1" as="geometry">
                        <mxPoint x="515.8333333333335" y="1020.0000000000002" as="sourcePoint"/>
                        <mxPoint x="450.83333333333303" y="1020.0000000000002" as="targetPoint"/>
                    </mxGeometry>
                </mxCell>
                <mxCell id="_cwqi-WOkN7Hi492-8AW-85" value="" style="rounded=0;whiteSpace=wrap;html=1;strokeColor=#666666;strokeWidth=1;fillColor=#f5f5f5;fontColor=#333333;shadow=1;fontFamily=Lucida Console;glass=0;labelBackgroundColor=none;connectable=0;" parent="1" vertex="1">
                    <mxGeometry x="640" y="920" width="640" height="120" as="geometry"/>
                </mxCell>
                <mxCell id="_cwqi-WOkN7Hi492-8AW-86" value="" style="shape=mxgraph.cisco.switches.workgroup_switch;html=1;pointerEvents=1;dashed=0;fillColor=#036897;strokeColor=#000000;strokeWidth=1;verticalLabelPosition=bottom;verticalAlign=top;align=center;outlineConnect=0;shadow=1;" parent="1" vertex="1">
                    <mxGeometry x="661.67" y="999.545" width="43.33333333333333" height="25" as="geometry"/>
                </mxCell>
                <mxCell id="_cwqi-WOkN7Hi492-8AW-87" value="" style="shape=mxgraph.cisco.security.router_firewall;html=1;dashed=0;fillColor=#036897;strokeColor=#000000;strokeWidth=1;verticalLabelPosition=bottom;verticalAlign=top;shadow=1;" parent="1" vertex="1">
                    <mxGeometry x="661.67" y="934.375" width="43.33333333333333" height="26.25" as="geometry"/>
                </mxCell>
                <mxCell id="_cwqi-WOkN7Hi492-8AW-88" value="&lt;font color=&quot;#666666&quot;&gt;Router/Firewall&lt;/font&gt;" style="text;html=1;strokeColor=none;fillColor=none;align=center;verticalAlign=middle;whiteSpace=wrap;rounded=0;shadow=1;fontFamily=Helvetica;" parent="1" vertex="1">
                    <mxGeometry x="726.6700000000001" y="933.125" width="130" height="25" as="geometry"/>
                </mxCell>
                <mxCell id="_cwqi-WOkN7Hi492-8AW-89" value="&lt;font color=&quot;#666666&quot;&gt;Layer 2 Switch&lt;/font&gt;" style="text;html=1;strokeColor=none;fillColor=none;align=center;verticalAlign=middle;whiteSpace=wrap;rounded=0;shadow=1;fontFamily=Helvetica;" parent="1" vertex="1">
                    <mxGeometry x="726.6700000000001" y="999.545" width="130" height="25" as="geometry"/>
                </mxCell>
                <mxCell id="_cwqi-WOkN7Hi492-8AW-90" value="&lt;font color=&quot;#666666&quot;&gt;EtherChannel&lt;/font&gt;" style="text;html=1;strokeColor=none;fillColor=none;align=center;verticalAlign=middle;whiteSpace=wrap;rounded=0;shadow=1;fontFamily=Helvetica;" parent="1" vertex="1">
                    <mxGeometry x="960" y="999.55" width="40" height="25" as="geometry"/>
                </mxCell>
                <mxCell id="_cwqi-WOkN7Hi492-8AW-91" value="&lt;b&gt;&lt;font color=&quot;#ffffff&quot;&gt;11&lt;/font&gt;&lt;/b&gt;" style="rounded=0;whiteSpace=wrap;html=1;shadow=0;strokeColor=#FFFFFF;strokeWidth=1;fontFamily=Helvetica;fillColor=#9B59B6;dashed=1;" parent="1" vertex="1">
                    <mxGeometry x="1040" y="935.01" width="40" height="25" as="geometry"/>
                </mxCell>
                <mxCell id="_cwqi-WOkN7Hi492-8AW-92" value="&lt;font color=&quot;#666666&quot;&gt;VLAN&lt;/font&gt;" style="text;html=1;strokeColor=none;fillColor=none;align=center;verticalAlign=middle;whiteSpace=wrap;rounded=0;shadow=1;fontFamily=Helvetica;" parent="1" vertex="1">
                    <mxGeometry x="1120.42" y="935" width="40" height="25" as="geometry"/>
                </mxCell>
                <mxCell id="_cwqi-WOkN7Hi492-8AW-93" value="" style="group" parent="1" vertex="1" connectable="0">
                    <mxGeometry x="880" y="990" width="40" height="44.54" as="geometry"/>
                </mxCell>
                <mxCell id="_cwqi-WOkN7Hi492-8AW-94" value="" style="shape=link;html=1;strokeColor=#000000;fontFamily=Helvetica;strokeWidth=2;" parent="_cwqi-WOkN7Hi492-8AW-93" edge="1">
                    <mxGeometry width="50" height="50" relative="1" as="geometry">
                        <mxPoint y="23.940250000000002" as="sourcePoint"/>
                        <mxPoint x="40" y="23.383499999999998" as="targetPoint"/>
                    </mxGeometry>
                </mxCell>
                <mxCell id="_cwqi-WOkN7Hi492-8AW-95" value="" style="ellipse;whiteSpace=wrap;html=1;shadow=0;fillColor=none;fontFamily=Helvetica;fontSize=16;fontColor=#C0392B;align=center;" parent="_cwqi-WOkN7Hi492-8AW-93" vertex="1">
                    <mxGeometry x="15" width="10" height="44.54" as="geometry"/>
                </mxCell>
                <mxCell id="_cwqi-WOkN7Hi492-8AW-96" value="" style="shape=mxgraph.cisco.switches.layer_3_switch;html=1;pointerEvents=1;dashed=0;fillColor=#036897;strokeColor=#000000;strokeWidth=1;verticalLabelPosition=bottom;verticalAlign=top;align=center;outlineConnect=0;shadow=1;" parent="1" vertex="1">
                    <mxGeometry x="880.0049999999999" y="927.97" width="33.58333333333333" height="39.0625" as="geometry"/>
                </mxCell>
                <mxCell id="_cwqi-WOkN7Hi492-8AW-97" value="&lt;font color=&quot;#666666&quot;&gt;Layer 3 Switch&lt;/font&gt;" style="text;html=1;strokeColor=none;fillColor=none;align=center;verticalAlign=middle;whiteSpace=wrap;rounded=0;shadow=1;fontFamily=Helvetica;" parent="1" vertex="1">
                    <mxGeometry x="910" y="933.74" width="130" height="25" as="geometry"/>
                </mxCell>
                <mxCell id="_cwqi-WOkN7Hi492-8AW-98" value="" style="rounded=0;whiteSpace=wrap;html=1;fillColor=#d5e8d4;strokeColor=#82b366;dashed=1;strokeWidth=1;" parent="1" vertex="1">
                    <mxGeometry x="1040" y="1000" width="40" height="30" as="geometry"/>
                </mxCell>
                <mxCell id="_cwqi-WOkN7Hi492-8AW-99" value="&lt;font color=&quot;#666666&quot;&gt;DMZ&lt;/font&gt;" style="text;html=1;strokeColor=none;fillColor=none;align=center;verticalAlign=middle;whiteSpace=wrap;rounded=0;shadow=1;fontFamily=Helvetica;" parent="1" vertex="1">
                    <mxGeometry x="1095.63" y="999.55" width="89.58" height="25" as="geometry"/>
                </mxCell>
                <mxCell id="Jc9i8-Dtpv8Or8JxEpXH-21" value="&lt;font color=&quot;#82b366&quot; size=&quot;1&quot;&gt;&lt;b style=&quot;font-size: 22px&quot;&gt;DMZ&lt;br&gt;172.20.129.0/24&lt;br&gt;&lt;/b&gt;&lt;/font&gt;" style="text;html=1;strokeColor=none;fillColor=none;align=center;verticalAlign=middle;whiteSpace=wrap;rounded=0;" parent="1" vertex="1">
                    <mxGeometry x="1200" y="860" width="300" height="20" as="geometry"/>
                </mxCell>
                <mxCell id="Jc9i8-Dtpv8Or8JxEpXH-12" value="" style="shape=mxgraph.cisco.switches.workgroup_switch;html=1;pointerEvents=1;dashed=0;fillColor=#036897;strokeColor=#000000;strokeWidth=1;verticalLabelPosition=bottom;verticalAlign=top;align=center;outlineConnect=0;" parent="1" vertex="1">
                    <mxGeometry x="810" y="480" width="101" height="50" as="geometry"/>
                </mxCell>
                <mxCell id="Jc9i8-Dtpv8Or8JxEpXH-30" value="" style="endArrow=none;html=1;strokeColor=#82B366;strokeWidth=3;fontFamily=Helvetica;fontSize=16;fontColor=#C0392B;entryX=0.5;entryY=1;entryDx=0;entryDy=0;entryPerimeter=0;exitX=0.5;exitY=0;exitDx=0;exitDy=0;exitPerimeter=0;fillColor=#f5f5f5;" parent="1" source="Jc9i8-Dtpv8Or8JxEpXH-5" edge="1">
                    <mxGeometry width="50" height="50" relative="1" as="geometry">
                        <mxPoint x="1349.9950000000008" y="589.5" as="sourcePoint"/>
                        <mxPoint x="860" y="244.24" as="targetPoint"/>
                    </mxGeometry>
                </mxCell>
                <mxCell id="Jc9i8-Dtpv8Or8JxEpXH-5" value="" style="shape=mxgraph.cisco.servers.fileserver;html=1;pointerEvents=1;dashed=0;fillColor=#036897;strokeColor=#000000;strokeWidth=1;verticalLabelPosition=bottom;verticalAlign=top;align=center;outlineConnect=0;" parent="1" vertex="1">
                    <mxGeometry x="1314.97" y="589.5" width="70.05" height="101" as="geometry"/>
                </mxCell>
                <mxCell id="_cwqi-WOkN7Hi492-8AW-2" value="" style="group" parent="1" vertex="1" connectable="0">
                    <mxGeometry x="780" y="180" width="440" height="100.00000000000028" as="geometry"/>
                </mxCell>
                <mxCell id="3IaI13MPQyuyg9ZrAYYl-33" value="" style="shape=image;aspect=fixed;image=data:image/png,iVBORw0KGgoAAAANSUhEUgAAAggAAAEECAYAAABN1syFAAAgAElEQVR4XuxdBXRVxxbd817cIAYEl5AEd3d32uIUdykUCqWCt2ihRYu7S6BI8eIQ3D0hQAiQQEhC3N+bv84J8IFCIUJ0Zi0W9u69c/e9ebPnnH32EVBDIaAQSDEExgOa5iinDUWANgZWWnNEaySMDKLNpZHQaw0gNQYaKQwl4rR6AwNjoYvNKrQaU70Uplo9zAVgJoXeDFKYSkhLCGEhBMwhRRYhYATARC9hIgTMBGAkAUNIGALSQAoYaQADCaEFpBYSWkBoIKCRkBoA4jUQUsTF/1lKIRAr6A8A/ZtOSMS+/HM0hNABMkpIEakXiBJSRgmIKD1kJCQiAekPiCgIhEEvoqWQoUJoIqDRh0mdPlKv0YRCo4syijWIixL6OCOBWGji4nTh+tgYxMVqYaYzQojOEra6+7iobwfoUuxhqQspBDI5Av//QsjkQKjbVwgkFYHNgNYeRU21MDaViDWBkZFFnEbaazTSRkJmEwLWUi9thRCWEsJYSGkqASPQYi6FBYQ0lxJmvOgDJgKg/zcGaCHPeENC6gUQwwQCIEIRIQTCpZQRUogwARkqJWKEEJESiBFSHwGh8QcQJCT8pEa8QIz018TGBcQCMSaIjQiBLqYpPGOI2WQ8xNQdKQRSFgFFEFIWb3W19I2AWIH8xnlgYh5rYmJpLJBLI6WTTqCYRqAYJBwhRNaXO3GNBDSCdukCWgFoZfxC//ZOPX3jkaKzfxnF0AMgYhGnB+jPOgHoJCAF/50jF/eEgIeEuAY9bupg6A1tZLjOQhPW6Nm1SDo+RSeuLqYQSKcIKIKQTh+cmnbyIEAh/1qorQH8TPSmhlmERmOn1+ltoIG5RkpjoRf20IhCQqAopHSRQC4hYCgpNK9GukGAyAWAOAkZCAkPCNyUEh56wEcIGaHRayNjNQgy1Et/RCHIEtrwXbioG6/IRLp5xmqiyY+AIgjJj6k6YxpFgMhAFZQ0NbJAAcRpSkkNioFC/xLGEKCdvx2kcKDfpZCmxAAUEUijDzP5piUl6SyAWEAECghfCTyH0L+QpKGQeMHRCCmvBBnEeH4VWiIIcKUIhkphJN8zUGdKowgogpBGH4yaVuIQkID4BRBFAZHDooxNnF5XBXpNM6GR1QBkhwQJ+yivr4ZCIGEISMRByDBABEDiMiR2R0vNyZDoQg9uwVWOi09zKOKQMFTVp9MwAoogpOGHo6b2YQQuoJxZsDEcpIjNqdFobKDXZ4FG4yKAEgCKScgsAsISpOJXQyHw+RDQQcoICBEMCU8JeU0I3JYSfkJqQnQG8JFhmicNcDH4801BnVkh8HkQUATh8+CqzpqMCFBqoKFpKYdogTIASkuIwkIijxDILiFtwBUAMAFgkIyXVadSCCQWASrFpEqKCAiQ5sFPCOmjl8JTI8X1GH3UBZtoM6/yuBib2Auo4xQCKYGAIggpgbK6xkcRiC8RzG8YZ21rbBwNsyipK2gAWVEI1IBECQhR6K06/Y+eUX1AIZB2EZCQfkLiJqQ4JjX6y0LikoGRDDcNNooOhWVMHRx96UORdu9BzSzjI6AIQsZ/xmnyDm+iqJGfOWx0UuTR6g2doEERKWVeIURBQDpKwF6oSoE0+ezUpJIdAdItBEvAS0DekxIPhRC3pV7c1UHzwCAqwK8OvMgrQg2FQIoioAhCisKdeS9G4sGjcLKFmVF+AcMmeugbaSAcJKSZhLDSxJsCqfcx874i6s7fQoDMo0gQCfr1AhBuUhezS2oMbgREXn2qHCXV65ISCKgv5JRAOXNdQ1xAOYMg82gbPQwctHE6BwOttqwE2umBYmQYlLngUHerEEheBCTkfUjs0kNzQgfdIwOpfWoaZeJXBaejVBVF8mKd2c+mCEJmfwOS4f5JRFjRppKFSVR0dUjUgoA1JJyFBqUgkSUZLqFOoRBQCLwHAbKqlpDuQuKKTgN/DXDJUGoO+0RcfqaiDOqVSSoCiiAkFcFMejylA3aieLYsZtq+kKKLZKMhaQmwx4B6rzLpe6FuO/UQoOiBHtxYKxxSBgshjotYOatm7NUrKrKQes8lPV9ZfZGn56eXQnMnMnDQpGgeI2GUW2pEPmi1TSH1dQBkA4TyGUih56AuoxBIOALEGUQQgCsaA80WXWzsbU2M5pl5jHhYHhcjEn4+dURmQkARhMz0tBNwr1JKah1MvgN1YiKjisV6ertEP3mWXx8RlYVbCKuhEFAIpDsENEYGIYZ2Nj4mhXJ7Gtnb3gRwEsBxIURIursZNeHPjoAiCJ8d4rR/AclW9NxlkASEJfV6fU+NRtMMQN60P3s1Q4WAQiCJCAQAOARgPYAjoBQFdcwUQtlGJxHY9H64Igjp/Qkmcv4vSYE9gMIAygGoDKASgHwviUIiz6wOUwgoBNIxAs8AnANwBsAlAO4AHgkhlHFTOn6oiZ26IgiJRS6dHieltAJQEUAnti2WMrsQIpsiBen0gappKwQ+DwIUPSDtgi+AewA2U3RBCPHk81xOnTUtIqAIQlp8Ksk0p5dRAqoqsAHgDKDDy19EEtRQCCgEFAIJQYBIwwEAK6Kjoy8aGxsTeYgUQugTchL12fSDgCII6edZffJMpZTUtMgJQCPqbAigLoD8qvzwkyFUH1QIKAT+G4HAl3oFEjoeBXD2JVlQuoUM9OYogpCBHqaUkqIF/QF0AZALgK1qd5yBHrC6FYVA2kOAogeUinj+MrrwqxDCP+1NU80oMQgogpAY1NLIMVJKUwAFXgoLhwCoDYBIghoKAYWAQiA1ECAx4x0AswBcBOBNvSRURURqPIqkX1MRhKRjmKJneKkroNbHzQGUfUkKHABQWkENhYBCQCGQFhCgyEIwgNMAzgM4TJURQoiYtDA5NYdPQ0ARhE/DKU18SkpZC8C3EdGxdaWebI1V46M08WDUJBQCCoEPIiAEeypEmRhobgit9k9Rvt9GXFwcqyBL+wgogpBmn9F4DZx8bCA0zpCyHgRaGWg0pdLsdNXEFAIKAYXARxCQkFKnlz6Q2ANgO4TuNhxyP8LR8cpnIQ2+PYogpL2HIuA8wAmQbQBZX0AWA4SdqkBIew9KzUghoBBIEgJhUuAuINygj9uMiOALeOwamaQzqoOTFQFFEJIVzsSeTAo4fmsEEV0aGs1wAfmV0hQkFkt1nEJAIZAOEZASuAopf4E+/DA8Y8IBV106vI8MNWVFEFLzcRZtawTYFkOcvhGEprEAawzUUAgoBBQCmRYBKYQnpNwOqT+MmNjT8FpJYkflr5AKb4QiCKkAOsqVM0R4uTqQYoiAKAbI3EpwmBoPQl1TIaAQSMMIBEoBD24iFSKXwWexak+dwg9LEYQUA7ytFk62OQBZHULMAGQOEd9BUQ2FgEJAIaAQ+DACUgoRCYk/IHRrEWbxCI9nKq1CCrwxiiB8bpDL9TVEiKwFA00t6NFWAI4qWvC5QVfnVwgoBDIeAkIvIV8A2AmhOYioyD3wWkkujmp8JgQUQfhMwHLVgUv/hpDyRwiUFhJZoCIGnw9tdWaFgEIgsyAgIRApJe5BYDUCtAvxfH5YZrn5lLxPRRCSFe22WhSyzwkDHTkcDhFAddULIVkBVidTCCgEFAJvIiAlxH1IzIMQe6Az8ILn3GgFUfIgoAhCcuHo0j8f9LIrhGguIMnQyCh5Tq3OohBQCCgEFAIfQYCqHO5LiAPQig0w1Z1Rbo1Jf2cUQUgqhk4d7aDJMlxI+d3LaIESHiYVU3W8QkAhoBBIHAJEFOIkxF7odCPhuYTaUauRSAQUQUgMcORfoLMpCSmbQSN6Com8iTmNOkYhoBBQCCgEPg8CUoDKIrdAj03QG52E59yQz3OljHtWRRAS9GzHa+Do6wIDMVpIWQWQ+QChMEwQhurDCgGFgEIgJREQARLyCoCF0AbuxC1X1VHyE+FXi9snAdVWiwJZ7GCoHSUE+il9wSeBpj6kEFAIKATSEgJk5+wGxPaGzlyJGT/hySiC8DGQivQtCz1aAeIbAS5VVJh9DDP1/woBhYBCII0iIAFqNb0NAmuhCdyvIgofflBqsfsQNk79c0FgPATqCynzKHOjNPrTrqalEFAIKAQSjgCJGYOkEBcB3UTcWXJc9Xv4N4iKILyFyXgNivplQ5yuFTRilJAyZ8LfO3WEQkAhoBBQCKQbBAQipMQGCDERcYa+ykfh/09OEYRXWJQYYI1o3dcQmh4CsrSKGKSbH281UYWAQkAhkGQEJPAYGmyABitxc9GtJJ8wA5xAEQRQEyW7hoB+uhDcJ8E4AzxXdQsKAYWAQkAhkHAEdBAiSEoxC4ieDffloQk/RcY5IvMShFdeBkIMElJ2UMQg47zU6k4UAgoBhUASEaAOkmehF7/BzPgorswKzowahcxJEAoPKAiNfrAA2gDIncQXSR2uEFAIKAQUAhkSAREphdwL6ObiztKjGfIW/+OmMhdBGD9eg42Pa0Jqt6mSxcz2qqv7VQgoBBQCiUaAIgpLEfdwMDz3ZppmUJmEIIzXwMmnKjSaoQKyFahZqBoKAYWAQkAhoBBIAAJSiOuQmIWg8E14tiY8AYemy49m/IUy/8AcMNFPgUQDAS5bzPj3nC5fRTVphYBCQCGQLhCIlgIHodH8hlsLTmZkbULGXSwdBxvDIKYsIFYLKak6QQ2FgEJAIaAQUAgkEwIiTEKMAaKXwX15WEYkChmRIAg49ikKrfYbQHYWgGUyvQ3qNAoBhYBCQCGgEHiNgAQnrE9AJ6fhrsd+4GhcRoIn4xGEogM6Q68fLSR7Gmgz0sNS96IQUAgoBBQCaQ4BCYhACbkJkaGj4b3+RZqbYSInlHEIgss3TpBxYwTQOZFYqMMUAgoBhYBCQCGQaASkwGVIORwWOImLi6kpVLoe6Z8gFB1vBPm0PaQcKiTIIlmTrp+ImrxCQCGgEFAIpGMExFOOJmi1U3Fr/tN0fCPpW9GftXT3rEHRpnOFXt9WOSGm59dQzV0hoBBQCGQoBCSEuCil6AX3BdfS652lzwhCub6GCNVXhjCYKiCrplfw1bwVAgoBhYBCIOMiIIUIgx4DYRi7GzeXBaa3O01/BKHk9+aIDv9OQP8dAJv0Briar0JAIaAQUAhkIgQEYqUUOwGDEXD/80F6uvP0RRCydzFHVvO9AKoJSKU1SE9vmpqrQkAhoBDIxAhIIBRS2xQe893Si2dCOiEIbbVwsWkKPaYIgWKZ+B1Tt64QUAgoBBQC6RQBKRAIyD8g4+amh1bS6YAgtNXC2foXCNFbSGRTVsnp9CdDTVshoBBQCCgECIFICfEP4jTDcW++Z1qGJG0ThAK9s8NI+4cAOqVlENXcFAIKAYWAQkAhkBAEpBDugKYn7sw/nVZTDmmUIIzXwNm3LICpAqijvA0S8tqpzyoEFAIKAYVAukBAwFtCTEZYwGo8do1Ma3NOgwSBWjP7thUCswDkSGuAqfkoBBQCCgGFgEIgGRGIkhJLIGJHpTVdQtoiCNSBURvTQwBTAGRNxgegTqUQUAgoBBQCCoE0i4CEWA7EjIH7cp+0Msm0QxCc+tpBiFEC6A/AJK0ApOahEFAIKAQUAgqBlEBAQhyFjP0RHsvOpcT1PnaNtEEQ8g/NCuOoRQKyterA+LFHpv5fIaAQUAgoBDIoAlICD6DXNcfdpbdT+x5TnyA49XWBRjNHSNSDMj9K7fdBXV8hoBBQCCgEUhkBCfEcMq47DIIP4pZrTGpNJ3UJQtEBNaDTzxFAKeVvkFqvgLquQkAhoBBQCKQ1BJgkCDkB5nJharWOTj2CUKhHHhgYHRdA/rT2YNR8FAIKAYWAQkAhkNoISCAWQg7CnZxLgfH6lJ5PKhAEsk22rgdoFgsp86X0DavrKQQyHALyI3eUCj/lGQ5jdUMKgVRCQELoATkOsXIu7i8OTslppPxXh1OfJhCa+SpykJKPWV0rPSJAaiXI+E2D0GhgYmgACxMjmJsawdzSFObmxjA1NoKpsQGsLEzfe4thEdGI0+kRHhGN2DgdYmLjEBkejajIaMTE6REZHYuImFjE6iWkXg/oJUDfCkIDkfLfDunxMak5KwRSAoEIST0c3BePS0nXxRT8CiADpKfloZE7hUT2lEBUXUMhkNYRoB9AjUbA0MAApsaGMDMzhp2lKWyymiNXLlsUL5wTxRwdUCivPbLbWoJW7The6HWIjolDdEws/x4TFwddnESsTsecIo5+lxLEMWJjdXwNIyPDeLJB1xQCGq2AgUYDrVYgJDwaAUHh8AsIwcMngfB5Hsx/jgiNZHIRFhOLqOg3r6eHXqeDnq7xsQhGWn8Ian4KgXSCgBQYhxCf3+Hzd0RKTDmFCAKlFeybQuqXCkhquKSGQiDTIUALqQYSxkYGyOVgg9JF8qBwXntktTCBra0VCuaxQ87sWREUHAGvJwF49PQF9Do9zIk0WFvAyNCAF3pasINDIxEWGQNDA1rgNTAxMoS5mREszExgQkTDxJD/nX7ATUyMmBCER0Yz5nq95D9HRsWTi6DQSI4s6HR66HQ6mBgbIauVGSzNTWCg1YCiEEQWaE5+AaEciTAxMUQ2K3MmGeHRsfD2eYF7j57jybMgRIRGIJbO9fIJCxWKyHTvurrhz4aAlEL+hhhMTYl0Q8oQBJc+VSG16wWU5uCzvTbqxGkSAdrFG+kkcuazR5tGZfFVgzKwsTLjRZwW+yt3HmHP0Ru44v4I9taWqF7OERVK5EfObFl4q2+o1fJnX/0icqHVcA7gs6UA4iMCEjq9RExMHKKiYzkVER4ZwwTCwECLp/4hOHv1AfafvIXQ8CgUzG2PelWdUco5N4wMNIiO1eG6xxMcP38XJy54wvdJYHyU4zPPPU2+BGpSCoFkREBCRHLLaPdFY5LxtO891ecnCEV6FYfecL+AzPm5b0adXyGQqghICTNTY17crc2MUaxoXiYFBfPYIzQ8ElqNBl4+ATh82p1328UK50TjGsVQMLcdwsKjeAdPw8rSFLmyZ2VSkNrDxy8Yx8554IDbLfj6BDKpsbGzQt1KzqhYMj+KOubkhT8sPBrX7jzGfrfbuHnXBznsrfje8ueyA3ECKwsT1knQfZ+6fB/nr3vh0SN/xETFIFpKREbHcRTjVbbC0EDLeBkZamEgAK0QEHrJ19cSuTLQwsjIAPQ5+rc3B+FIaRVKv+giYxFH54/T4UVoJAKDwjhF89nYVWo/MHX9TIGABPQQGA1zORsXF3+2dMPnJQgcOdCsEUDBTPHU1E1mLgRoNdPpYGVtgToVnVDGOTcKF8wBl4I5QAvrpZsPYWpiCFtrC0RFxcLOxgLOBXIgr4M1pw0o1L9l70UcPuuOki65YaARLCh8/CyIfx/VvwmnFlJr3H3oh4Hj18M5XzYM6V4fuXJk5VQFpSbW/30OC9Ycxv7Vw5jMvDloAaZoA6VIbnn68qKsNdByaoSOLVc8H2qWd+SFnbQUkVExCAyO4EjEq0G4UUrFwsyYUzIUtSCSQMdoNJr434k08K+3EaIICGkj9Ho940hk4UVIBB76BML9/lM88gnEhZsPcez8XRZrQqNJLYjVdRUCiUZACkQAmjGIM5gHz7nx+cNkHp+PIBQamAeG+r+FlGSCpIZCIMMgICnMbmiE1o3KoPtXlVGxZEEYGxvgyDl3LNt0EtGxcfiyYRnUKOeIvDmsYWxsyGmBd3Pxh8+4o+uI5Tjj+jMc7K0gaCcswfqAB4/j8/21KhbmXXJqjG4/rcSxsx64uG0UbLOa48rtx/h13m5UKl0ADasW4XkVymsHUxOjf03vzJX7GD/7b3RoWRFf1isFC3MTXqiJNBw954Ft/1yGoUagT4eaaFqzBAslU2oQMSMRp39gGP4+eg2/LTkArwfPKJ+TUlNQ11EIJAsCUiAcOtkedxfvTpYTvnOSz/NT6TwoJ0TcSiFlfeWQ+DkemzpniiFAwkINYGttiYIO1ihZLC+a1CzOO/6Q0EhW/N958BRPnwejiGNO1KnkhAK57GBgoMGV2484nF2ueP73RrR3HbmOPmPW4tK2kXCwz4KomFiMnrmDCQXtaWetOIhlU7ujXZNyKXa7b15o+rIDWObqhjmj2qFkkTwwNjTgXfjhM3cwdck+TBr6Bfq0q/HW3ChNsOvINYz6Ywe+7V6P0yRXb3tzuoBIRtsm5VE4fzaOnpDokUgSaRWIIFHkJV8uW065ZLF8f9nm5wCCRJdnrjyA694LOH3pHu56P0dIWFR8uYcaCoE0joAEQgG0g7vDgeQ2U0r+HwHqyqjVLBZ6+aUiB2n8zVLT+yACUi9hYWqE8iULoGXdkihfIj+XGtLufs/R6/C454tizrnhVCA759nNTI047E2liK8iBXuP3cDkBXvwbff6HG2gkPibw/9FGL6btBm+z4Iw8fuvuKSR8ueUYli97TSOnvVACedcmD2qHack3jdeheip0oA9DSJjEBEVw5UGVKHwvkGLNi32hoZa9lSgCAD9bmFqzKH8V9MkcaLbpXu47v4EAcHh0MXpYGpqjG3/XEE2W0usnd7jrRQIkaGlrm6YumAPsmXPiv4daqB6ucLIk8MalK5o1GMWerevgQlDWr41rVeRBSIM7g+ewd3TF7kdrPFVozJMtt7VGHyu15awp9TQNffH2HHwKnb+cxnPXoTFR3bUUAikbQS8JGRPuC8+kpzTTN43v1xfQ4RrJwupH67IQXI+JnWulECAFnYq68tlnwWtmpTDkC51kDuHNaJi4uB+/xnmrTuCe15++KFfYxbgvRrP/EPQrNccXLr9CA1rFkPP1tW4GoF2zJR2aD94MeaM7YhOLSvy+d8clCf/658rWLLxBAKCQjnPnie3HZ+jftUiHIGghd4vMJQrB548e8GLqNeTQC49pLw+LfBEULKyuNEaNlnMYGFuDCtzk/+L8V6aFdBvREzCo2I4AvIsIITz87Rjpvs0NzFCNjtLFMhlC6f82ZHXwYbJQHZbK9ZTUP7f0/s5sttZwjaL+etbofNu3nMBP03fil1LBiFfLjv8ffgalm48jmv3fGFvZYa61Yrg1yEtYfPGcXQCiiZ4PvRjPYJjPntOXZy45ImJ8/Ygf25bDOpUm6MLpEVIyZJJIi5z1x7BovXHWFwaR2ZSyvQhJX4U1TUSgYAEzsEwpCVubHiWiMPfe0gyEoTxGjg/7ScgZ1DpdXJNUJ1HIZBYBOjlNhQChsaGr3eBtAumX/xlD8AAApZWpihbPB8qFsuLahWcUKeyM/sL0EJ8xO02/EMiOET+ZYPSbFr0vkXq4k1vDJ28GQ62lihROBdCwqNgaWECM2NDPPILxr7jNzDg61oY1KkOpx/eHLQwkkDv/iN/eHg942PNTY054hAYHA6vxwEchvf1C0Jx51yY+VNbFjx+SJtACy6F+mnBp/MFvAhnIhASFslmTK8IhXhVKinAhklkokhljcFhkXgeGAaf50EIDY/mHTyRjXw5bdjAiYCjiIV1FjMUymOPgnntuByTUiK1KjqhViXn11EI8kVo1vdPDPy6Fvq2fzsdQRg8fxGGBeuP4dL1h3DMbQsYaOFgZ4XKZQuhbNE88PDyw84DlyANtMhqboK6VYswWXiXaCX2HfmU4ygac/DUHRw5cwenr9zHlVuPmGCpoRBIawhIiV3QiV64t9AvOeaWfATBpU9rITUrAFgmx8TUORQCiUFASAlLSzO0bVwOLeqUQHZrCy6JexUmJuMh+sVGPnoJYwMNTM2MOVJAFQOkfic9wfApW5DD1hKtGpaFY4FsvIveuv8yE4eWdUuxCdG74/HTFxg2eTPv5OeO7chldT5PXyAoPApLN5/EnQfPsGxiF5QukpujAh4P/bB2x1lcufkQpYrlRf3KRWBnbc7zovA/kY69R67B3s4KrRqUwbq/z8HLJxDH1gx7a+ceGxfH6QWKcux3uwUSCIaGRSE8JAJDezdCKZfcbGA0bdFeaLQazBzdHtlsLHk3TAstkR8iLZRSIFJBi390dBx0ej3/++OnQexlcPmWN1dk1KvsjML5s3NagqoPjpx153twccyJTi0qMomKL9EU6PbjCjzzC8amOf2Q1er/ugK69gG32/hl5nbWNcwY04HvkYjMw8f+2HrwKry9n2PaT21QII89/AJD8PBRADbvu4AXQRGYMOwL1m2kZESBiBfNz/tJIE5e8sTcdUfw+FEAdIICNcn3VZqY914doxB4hYCEWA5twBDccg1LKirJ81Y79SsFITYJSOekTkgdrxBICAL0ApP3QLYsZihbugDGDGyGorTDTKDynxZs7ycBWLX9NE5evIf547/mneqb+W/azXYfvgx5c9tiwndfILeDDe/I3xwUvh84bj2kANb/3osXeloMycY4MCgcTwNCsHzLKbg/eIp2Tcujac3iiI6KxX2fAFy88RCXbz3idAJVB3RuUZmrGCi0Tov3mJk7cPTCXWye1RfR0bE4f/Mhdh2+xpUBjvmyoWnNYmhSsxgsLUyx3NUN8zccQ+F82fDELxi5s2fF6AFNcdPTB9Pm7cbGef0xatZO9GpTjRd4EhxuO3gFzWqV4DQGVSxQeL988XwUZ8CLkHBYW5kjLDIaR8+6M+Gh0fnLyihTJA+yWJiymHPT3ovYtO0McuWxQ5921ZEnhw2yWJnC3triNakiF0ia3+zVh7Bxdl/kypYVY2ftwB1PH4zo3wT1KruwSJFKFN+NFBCWNz190efnVahRyRl92lZjn4n3EbaEvEeJ+Sylh/yDwrFpz0Ws/OsUggNCEErRoLAormTh3hakdEyeb9nETFEdkxkREIiQejEUHguXJPX2k/7qFm1rBJ3NZgGQ8ijp50vqHanjMwUCtH8v4ZIbdSsURoXShdCoRlHeuSdmJ3fhuhf+PnSVF+oGNYujRgVHrsF/36Bc/bYDl3lnb2tjiR5tqrKA8c3xPDAUZ64+QEmnXDh50ZP7GhhotYiMjEZx59yoUrog6wQoWjFh/h78c+w6WjYsyxEMMh2inSqJJOn/yVyITMA3K1AAACAASURBVIYo/P/Q249TEWTL7FwgO7x9A1HCKRcqFM+Ph74BLCb8oh5xdYFr7k9Que1UXPhrJJ4+D8G+kzc5RVG7ojOe+AUhNCwShfJlQ7WyhXDdwwdtG5fF+r/Po33TcvjimwUY1qM+dh+5jl++bYGzVx7g+IW7qFG+MLLZWKBssXy4cMMLOeyz4LHvC7hd8mStgz5Oh2rlCzOpoCgEOS1SZMHMwhQyTs9pkQbVi8LXLxirXU8iQq+HUx57NK5dHM75syM4NAr7T95kC+qijg7/+R4TeThx/i4OnbnD99uwWhFULVuIoyGpMUjgSOTpnvdzXL3zGN6PAxAWGongiGj4+ofg8bMXjDuRRD2JRyniQOJHFXlIjceV4a8pIZ4AaA/3hW5JudmkL+gu/RYLPXpCQBURJ+VJpLFjaYEC7YAoDG1sxKI38uenenYacbE6hERE8U6WlPMk6NLFxlGXIP5/SSF4+rJOxvArLTLUwZB2rV83r8g7fFpoyYQnMS8yuf8NnrAR0dEx+L5XIzjmt8cz/1AWyv0X0aBdLBGFnYeuYsqCPahSthBmjW7PvQvo/y7ffoSpCymcr0X7ZuVRxiU37GwsYUY9Ed5QxJMmoOfINWjXhMiBJYfzqbqAIgbkq2BsYIjAkHDe/T8LCOWFvn5VF0xftBcj+jVBg56z4ZQ/G1rWK43KpfJj+dZTLACsVcEJIeGRqNr+N3gfncI7cbqWsZEh2g9dgseP/WGV1ZxdECnCQVoHcm80MTJgYSI9Y8c8dvEag7z2uOftD9usZpi8aB9+6N0QObNlxbx1xzjdQot5uWJ5EUFRkEd+mE//bqTF3NEdGEMiO5T+eB4Qwjt/Moaiv3/Xoz7yOFjjhocPVmxxQ1h4JP4Y1YHvJyGDUzVezzBv9RFoDbX4/cc2LKZM7RFv1CS5KoX0IDRPigJR9CQ4NAJBIZFcrXLr3lO43/PBzXtP4fs8GDrSNsj4nx/q4JmoFzu1b15dP00gIIHH0OmqwHPp48ROKDHfqy+vxaLEjhBYJaRU5CCxTyC1jyNVthAc0qXmOzY2FijmlJPNf0q55EJ2eyvYZbWI7x3w0smOCcDLLn70O+XMydaW3PPoS5BKAWkBpZ005a9pl0m7J9pJk3I+JjwKMTo9ouN0iIyJ45I8Jhj6eH0ADUNDAxbTWZnFNw4qUzQvWtQvxbtvayuzJKFGcyP74FXbTuPLhqXRtlE53nl2Hr4UB07eRK1KLvi6RUXWCuTNacsL9ocGpQO8fQKZHJDF8L4TNzkS0KlFJbgUzP6foW+aR89RqzB7ZHt2I7zm8YRJgJGBFiVdcuGHaX+xsG/TngtoWa8UVxtULlWATYZIY7Hn+E3ULOfIPgxkbUyEhyoMHjzy5+jC9oNXMOabZmhRpyQvViu3nsKCjcexf9m33Bjq1QL+StBI0Yk9R67jr30XYWJuzL0hDAy1yJ/TlgWD5FGQP5ctzl334t+tzI3h6x/KURKqovi2cx0uZ2zQfRZ2LBjI2od3B5EVjwfPsGbHWQS+CEWjmsWZ6NGCSoLHNxd3ei8oEkGLKs2N3CgpRUPiUYqIWBobYdaY9siX05Y9JCjU/9eu8+jUqgoa1SiWol4KSXohX1ZyRERF40VwJKdzfJ+HcDTivtczeD8L4ihEREgEa0QiY3WIoP4YUfE/b1TpwoSeW3Qk4Ss9qTehjk9zCEihWQ0ZPQjuy8krIcEj8W9T4d5FoNFuEkCJBF9VHZDqCFB+1DqLBS84VcsVQmmXPLxzpj4CtNglJlT/sZuiL3z6QqM6fYo6EKGgRZL+HkW1+0QSXhIEWiisLM144SNBXXIY59AidOmmNxauO8oiu9ZNyvEO+dUPATkXUl784MlbXMlAuz76IqZyQ8qLs4L/jUEL6/nrD3khzmJuwr0VKN1Ai/2n1O7TYjl54V7c8niCxZO6YOfha7h9/ynKFcvHQr/b93x5Z085bfuXokISOpJWgggb7f4pKkHVElRlQKJBukeKFNDivfyvU9h56Bpa1C4BO1tLTnlQFGBk/8YsCPzQ8H8Rjqt3HuHWPV/4+L7g6FHRwrl4kb7r9QwmhgZo16wCayWIDJLuguZM+K3dfhpOhXJgSJd6/6rWePN6RCxJOEn43fL0QVRkDBrUKIYqZQpydQbpIvYfv8nnILK4/9gNVKtQGDXLF8bx8x6sdRg/qDnaNy3/lkcECR5d91xgL4XeHWuiUqkCH3st0/z/E7kjTQO33Y6IJ99EFoNCwjkSQeWuT/2C4fcijH0cnvkHIyAwDIFhkYiNjuMooHyPk2eav3E1weRAIExKzXfwWLA0MSdLPEFw6r9BCNkhMRdVx6QeAkICRQrlQP+va6FDswq8O3+fDXDqzfDzXZnq9OetOYJFkzojf247bNh1nisWaFGnnHcOWysmRjsOXcGISZuxYHIXFM6XHVMW7MWde77YvmgQrF8q8R/6BuKHqVthamqEid+1ZEV9YvLfRDLGzfmbIxqjBjSDiZEWTgVzMFF65PsC5655cY7/7sPnuHvPF1ojA26StGFGb9hlNefqDIrsUCBo2pL9OHbhLov2iDgQsbh82xubZ/flNAUJ+fYcu4Heo1ZjzfSe3BOBdBsfGkQ2KIW0/eBV/LH0AFo1Lov+HWpylGL0zO2oUtYRI/s2woWb3pi0cA+sTIzw67CvUPgjKZp3r0f36u37AqNnbENQSASmjGjNBIkIJc2Z7u/KncfoP2oNCx4pGrV9wTecjngfkaV5E5Hp/cNKdGtTFT3b1vgkwvb53rzPe+bX0TyQT0N8dI9IBUVeyF/ihqcv98S46fkEj7398dg/hMs0JaUDKZWhog6f9wGl8tmlQCi0cflxc1lgQqeSGIKggXP/7oBcTE3WEnpB9fmUR4B2ZCRqq1G2EFo1Lo8a5Qt9UISX8rP7/Fckf4Elm07gRVAYRg5shrw5bbhcbfG6Yzh4+g68/YJgY2WO8iXzwylfNs69ez32x5odZ/Bj38bo264GR24plUKVBv+43WKjou6tqrAw7l2HxMTcEekWev60CtZZzTllQdULZYrk5dB+KZc86DRiGVs8U8SnRf95cJ3TD5VK5ucF9cDJW3D38sOuo9exeEInbrn8avy2ZD8L4yoUzwsba0vsPnadRYLkvRAUGokCuW1ZQ0B9Iwrls4eJ0fvz9/T5NdtP4+6DZ7CxsWRNAUUy7tx/hgol8+P73g05VZDUQTiscHXjZ9CwejFUKJmP31XCZOL83UxOZvzclrUP7xsUQTh+zgPN6pRAXJweUxbuZW1Fr3bV46NFajHkyJiPXxDuPfLHPW8/juQEBoYhIDiCo0EUkXgeFIbwcCp3jeV04Os2m4lZMZL6Uqjjk4yAhHCDQWzLhJKEhD9ulz5VhdRuB6R9kmetTvBZESA9N3noj/umGYoVzsV5508JfX/WSaXwyWkH9dP0v7ikkPL477ZQJp3Ejbs+uHD9IY6fvoO8eezQol4pGBtqERurZ8Edif7oC3X0H9uRzd4KX9QvjcqlC3LkJbGDdnhvDlrct+y/hCnDvuT8PBGYad+34pQBpWBKtpyA1g3K4vZ9X9Z2rJnWAwXz2mPE1C2cg29RrySWbnFD+yblUaFEvtenpjQG5bLJj8HYxIibFFHpY7+x67hSYf66oyhSyIFLI69ee4DBPRvw8W8upLSghEVEgWo3g0IjUPbLSejYvALGDmqGFv3ns4HU4E61OQdOURRakCktkNhB1yMituf4DV6sJg/7iks5yWyqc8tKyONg88FTB7wIw5TF+3D3/jMsmdwVlubGOHbGHXPWHcXP/RpzJYYa70eANEAUdeKS3OBwTmnERMfBPySczaHIKfTWXR+EBUcgPDaO300ainSlizcqVgJj4B74O+AaryT/hJGwb7jc35nCLHK+ELL7J5xbfSSVEKCwLBkELfi1M1rULZlKs0jdy1LYmtr5dhq6GDsWD+awPI14q9x/twim/6NFe/2ucxj721Z0bFMNk777gsPcx8/fxdBJm7FsctfX50nq3dGXbe+Rq0HmSlIIJiRUCkk591fqd+6tEBHN5YGUMqC0yE99G+Gn37fx3Dbvvcgh+Jk/t2XiN2rmDnxVvwwqlXq77PLduR4/dxcr/jqF339sjWpfT4fr7L5cLkmRli5DFqNft3ro1LzCa4El5b9HTPsL6zYdR5myjuw6+ex5MOsPyIOCxHJ37j/F43tPUadmMcyb0JlTLskxqBV23+HL8duYDtwTg3QX7w4iQbSYUaRk2dZTWO16AibmJozphpl9mBxT46wu3y/Diqndef5JIXfJcV/p/RykhXC76Inth67h6Dl3BPkFI0qv52hDDLmVvtQSpff7zFjzFz5S6uvBY/GdT72vhBEE535tBLAWwPs7x3zqVdXnPg8CUnLpWrevqmBIt3owyqTta4kDLNtyEodP3cGUEa1YvEcitxfBETAxN+LwuozRcTSgThWXtxoO0YOhVAL9YFBkYZnrSZhqNejfpS4bByV1kOaAVPhEPGg+5Hy4aO1RfNOtLjspvoqAU8XH+JnbUa5UQSZ5o37fhsZ1SrAxEvVFcMxrx+WCFA2gZkjUBIlaMZOPAQkG3x1kn0wEgISKJA6l/PTR8x74c80RHFs7/HVkhdIOdbvOwPCe9dGibim+Hl0nXicQiBVbT2Fgp9rclIoG7R6pffM/J25iUNe63AuCAitEWKqWKcRh/aQO2s1OWbSP85ntm1dEmaLx6QV6PqcveHKKKPBFGIvxyCqbzKJIW0G9IK7feYwRfRrByMiASyp/mLYFLeuXRrcvq6SJcsikYpMWjn+leSCLcLIEJyEwVdJEhkfh6YswdhClv3MZtCrdTNVHJgU2IM67Bzz3Rn/KRD6dIFCXRo3mopAy76ecWH0mZRGgH9IhXethUJc6KJCbGmp++qNN2Zl+3qsROfht8X6cuuyJP8d15FK9dkMWo3yxvGhQrQiyWJnx4kwLyvkb3ti48wx6tK+BgV/Xfsu17+SFu5i2aB8Gdq2LelVcPtj3IKF302/0GjwPCudQLRGR3u2qs0kQtXi2eKNjIy3IQcHh2HzgEg6dusMaEq1OokSxPFi8+SS6fVUZv41oDbJZbtxzDkYOaIJDZ9zRv10NbkX95qAwPTWM6tGuOjeMavvtYnZdrFetCFr0m4e//uzP/gevxvnrXpi75gi/S837/glTI0NkzWqG6MgY1nC8qTXg0lQpuQph6ZZTbKBE9stkU03XmDqidbK4HFL1y8XrXvh1/h4M6FATXzQozWZQHg+eokBe+9ctot8UitLPBD3rN02vKD0zesZ2FHXKhSFd6yb08anPfyIC9E7QOxweEYOA4DD4+YfAPzAMl24/xt9HruH6LW+uWsI7fUk+8fTqY4lHgB5ND3gsWv0pp/i0VaT2eAM8fTpTSDnoU06qPpOyCNjbWGDCkC/Q56WYLmWvnnauRovBsi1uWLDmMA6t/Z4jAws3HudQ/KaZvblU8N1Bu+rm/edh3e892TKYdtdkm7tl93ksntKNd+jJOahqgtILVFVAaYN564/B+5E/vulaByWccsf3YtDpua/CuDk7ebGnJk+dv1+Oks65MWnYFxg8YROXXJJegUoP63T5A455s3MHRPI4oLbRNIgsUbni2Jk70L5FRXRsVgEbd5/HzJUHsX/5UDaZonPlzpEVI3o3fC223H/yFjbsOofFE7qAavMjImKQ3c4Kpy7fw6R5uzGgU200q1OSSejDJwHYeeQ69h29jo4tK7GTIynaSOyWwy4L+yMk53jwJADfT3FlR0bSI7xJqj71OiTK6/nDCrRoUJp9Jj7kmvmp51OfSxgCRNwoKkQiSTIb23vsJvyfB+EFlT6HR73WQybsrOrTn4qAFMIT0qAh3P988LFjPo0gFOlXU+jhCiB5vy0/Njv1/x9FwCFbFswf9zWa1S6Roh3uPjqxVPjAtn+uYOu+i5j+U5vXOXDaZQ6b4ora5R3RrG4pOBfIxnlzGrSIrfnrFPaduo1lk7qyC+GkhXvZk+Gnfo3fSyg+5bboC5A8+mnXRKSEGj19aBCdP3XpPkb+sQ1FCztwLwla9EfO2A5DrQYTh30Jx7z2uH3vKWYs/wfliudFdrssLOD748c2WOJ6knPBNco6Yv2e81g3vRecC2bne9u06xyuefhwOWvtSs44dPo2pi7ZjzmjO6BoofiKgyt3HmHwr5s4pfBl/dL8b7/M240Hj54zQXiVpqI8/+nL99ix8OY9H8wY2Z7dHqmDIxkfTR7+JRrXLP7exZby1cfOusPE1AhVSxdkA6ykDBKMTlu8n0/xc/8mTF4SOu49eo7hk1zxVaMy6NSyUqb/2Ukofsn5+cioWPg+D8KlW49w/uoDnL3mxSJV1TEzOVF+61wxEnIiHHJOwdHxcf91lY8TBMfBxtBGzxcQPVSvhc/2wBJ1Ytr5HFkzjEvfMruSmPL6ZCO86NdOb5njvDLk2XHoKvYduYangWFcSki764iwSFQoXYBLGYkc9Bi5ipsLUVMjUr8ndJAXP+2G/jpwmcWQZJx0/oYXijnmxI99Gr3lOUBRAnJOXP/3OVy++gBWNpYw0AqYmRizDoF0EiQCjIyM4SgC5cwd7K0wceFe7D50lcVgueys0LV1VdSu7IzgkEh0+n45Ns3qjXsPn2PphuNoUrcEureqyiZT5PL4zS8b8MfPbblXwqtB1QEdhy3lcrbWDUpjWK+GIKOkYVNdmdiM7NcEB0/dxrqd55ioULtpaqBkZBhfDklRG2qfff+xP6cXiKhSkyZqV02D+jFMmL+byygDQyK4XJHeVRJX5nWwZp0CkRfSiSRkUKXDnFWHcP2uD1ZM6ZaoNMZ97+foM2Yt5o3rmCwlmgmZv/rs+xEgIhoRGc2iVzL1Ih1JvLBYjeREQEI8hEZfBbcX+yaNIBTpW1boxWEAySNLTs67zMTnokVkcJd6mD6i1XuV3ZkJGqp9b/PtInzbpQ66fFGZw5cUen5f6JjyniSmIhEdNUKiMDnlzEfN3M7d92aNav+vUsiPYRkQFIYZKw5xm2WyI65e1hGGhhp2tSPr5Nsej5Ete1ZubmSk1cLI2IDD9lv2XeQuh+2aloNzwRz8HKn6kfoxUCUDLcQkDCRL6PJF8mBIzwbIYWeFvcdvYtCvG3DW9SdOo1DK4I/lB/F1y4q8+OZzsMGX9UtxzwRKmew5eh0/T/8LnVtVQYUS+dGoWlFQJ0KyUSblPxGE5ZO7YfqS/bAwNcLALnWYHGzZdwkbdp6FsakxhNTHl8rmtUdMdCyL/iKj46A10CAyIppzy1QCSQ2jpo9ojaa1i7NF9cptp7F8qxt3rSyYJxtsspiyiyXdh6e3H/5xu4Oz1x6gerlC7DdBnh2fOqj889e5f8M/KALTfmjFJC8hgxYe132X2GDq70XfJFvlRULmoD773wiQXoGqdm57+qq+FMn8skiJefBw+BYYH+9v/57xkQhCWy2cbXcLyEbJPDd1uiQiQO2MqTENLYqZeZB4beTMHWwtPG5Qc4aCShKp0dSAznU+aWc4asZ23gn/OqRlgsgBLeJkN7xw/TG2Be7ZvjpsrMxw8ZY3rt5+zIZMjnmzcSieDIYa1yzGbZFJB3Do9B1QZcG3Xeth/OwdKEtujoUccPyCJ++sifSQHwGRjEW/dELhN5oYkcNi68EL2SwpX04b/ON2m79EqXPjmz5ARJQm/bmbQ7UkYCyQx449EU5v+hGTF+3FT30bM5Hq/tNKzsXTbp66VK7deRa92tVA01rFuSZ++RY33PLwwaPnQbC2NOWKkE5fVob7Az+Oxly58RAhEdEczeo4bBmcCmRDaafcGDu4OVsDN+g2k+2gu7WqyuTt5KV7WP97TyYzRAgoZdDjp1X4/ae2KOEUr5/41EEkYeK83Sz4pOefUM0DPfeJ8/fA64k/p1T+q+/Gp85JfS75EKAU3OVb3hj0y0YmkmokIwIC4TJOUx+eC84kjiC49G8tpNySjFNSp0omBChEO/2HNhjaLXMrsW/cfYKhk12xeVaf1ztICt+v33UeP05xxcBu9TCse70PLhx7j9/A9GUH4Dq7H2zf6bXwX4+KyMEfy//hvg4bZvfh0kLyx2/1zUKUL5oXjesUR/efV8PU2JA1Dc6FHHDm4l2M/bYlt4umsDjl/8fP3QUKdbdpUo53sNRW2aVADu6D0LJOSVy/+wSrpvZ4K+VBOVsiCAM71ULz2iW5tKz90KW4uXvca8dHcnvsMnQJfhvZjiMV1NqZWjU72GdFnUrOGD17Bxb/2olTAf3HrWNB4a9DWvAt06Le+bulsLWxwPQf27AdN3lKNO81G93bVceqv06zRoP6KIRGRCE2Rsd9I8yNDLBkajdULlkApb6cyMLPzkOWYGC3uqxvILJDpKjfyNWI1ksM6VYXYwY0xc27vug0YjlOrv+e+4AkdFA6hipVKBJDXT7fHNw6W+qh1Wr5vuavP8ZlmdRCe1CnOuwZISBQtNl4TqeQO6YaaQ8Bivw16/8nDrrdTnuTS8czkhIb4LGoEyuL3zM+HEFwHGwFbcwGATRNx/efYadOuy/a8Y7s1zjT6g9o91e/+yz0blsNnVtW5mdNO0qfZ0G8A3/2LAjTVx2ErZUZWjUqF7/I6vQo7pIbZYvlBZXzkRMgKf/f13nwv14e6to44c9drF+gTpYeXn64cs0Lg3o2YPc/KqWjSoEz1x6wUpvIx3UPH140e/y8Cqt+686L8v1HzzlHT3l/c2MD3Lz/DCQ8JZEhEYTzNx5iw4xeHHl4c/QauZq7H1J544PHAajXbQZOrh+BC9e9cOrKA+h0Oq42IFEhiQOJSLYfsgSzR7fD2p3nmEhM+u5Lzt1PXrgPp67cw66F37y+BIXfT168hzWuJ1HI0QEFc9kiSxYzbvNMKYvhvRrglvsTRMTEwS6rGZrWLskdMCktQs2ESrT4FcundMW4ubu4NbjrnL7s10DPjAZVl9C8q5bKj3W7LqBXm6qsX0isloacMPuMXYvVU7ujhHMuvsbhM3ewxNWN7bMpuvDN+PVYuf007h2ciNg4PYb8uhFOhbJzBRDV7s9cdZCJ2yv9RIb98kinN0auqIMmbOKOq2okFwLCRwpdW9xZciphBKFIn/pCr9kE4MO+psk1R3WeRCFAXQa3zOnHu6HMOP5cewQrt53B4VXfMQbu959iztojLDQkgx5jAw1MzYzhYJcFJH6iNrrhYVEomC8bcuXIit6j1qBVwzLo0LR8ghcmXypXvOXNnROp1G/CvF3YvmAgtyQeP+dvTBj6BfcooFz/AbfbmLRgDzeFmjr8K4yZtYPpOplZUfi0WplC8H76Ag8f+ePuo+fYuOsct8gmQ5+bnr7YuWDgv6IbY+fsZDHiuj96MZnIW+snNK1RDM3rluI+BXpIDJ+6BW0blUWXL6vgpz/+Yl0D9TEo1vQXTP+hFVo3KsuvDQklpy//B5e3jfrXa0SthKlRFPkNbNh9AU/9gnDy8n3e/Vcqno8bS5EvwisLazJg+mb0GuTLnx3jBzdHywHz2Sdh2cQuyJ3Dms9P5OO3pQewaMNx/NirAepWK5rgBk/vTpR0bEtdT7KR086F33C56MBfNnBbarKUJuIyds7f+H3pAXgdnYyslmbc24FElBtn9YGhVou+Y9fi6+YV0LxO5nQfTQ/fIUT8vx6+DKcv3VOahOR5YHop5EzcWfx9wgiCS79FQqJv8sxBneVzIEC7LVoca1V0+hynT9PnjI6OQ+1uMzDh2xbcjpkGLcb0rfEp/SZ2H72ORZtOYOucvknqGxB/XYnTV+9zY6C7D/yw8rfubGxE2/SYmFg2hpm+9B/uqli6SG6uTuj140oOezevV4o77eXLbYtc2bNwI52qpQvh0dNAzFt7DKeu3MeI3g3wVb3S3Nb4VY6cduDz1h3Fut97cU3/d70bsgcBLb4nzt/FxD93Yfa4jpz62H7oCpd6Xt42mhfysl9NYhMpShUsntiZS8q+GDgffqd/f6vxFJGYsPBoeD58hmlL/2EiRGmN+tWKsJbh/DUvFHfKhdoVnfg4so0eOmEjypbMz8ZFVFJZonBOvAiNxMlzHlgxrQc/o7HT/4JPUATrDSiCQRUM33SuzRoMjpQIsO20uZlRgjtkNuw5m0lfv/Y1ePEfOG49Fk7ozPP5Y8U/WLrpBM5s+ZmjHGQ3PbxnA9Zx0Fi9/QyGTt6MJ8enJrkUM03/8KTzyZHup163mdwmXBU4JP1hSiECEPcw1/vcFd+fYnDpaguYegipogdJh//znsEhW1bsXvTNB7vbfd6rp97ZyfNg2tIDOLpmWIKFZWR33HrwIrakbvNyF53YO6GQOYWnr7s/5pbFVG4YEx2DM9e8QM/GxsoUz4LCYWlqDBMTQ/z2fSvkcbAGzWHdjrOcEqhQuiAvlpRmIPEilUeS/wCVR5KIkPQIpy7fZz0DWSU3rFEUbhfvodXghZxW6PbjSlzePoq/LFdvP81VGXRfdJ2t+y9h0+4LGDOoGfdbICtlIhC+/sFYte0M3DaMgNfjABRr/guu/T2G0xY0nvqHcGto8jiwzWLGnS6pKmL/iZsICovikkda2On+KVpz+LQ7brg/RmRMLLtXOuazZ+KTM1sWNKtdEr8vO8CdGIng0P3RPFwKZkeBXHYgHUjN8oWRK4c1d6d8FhCMqOg4ZLOxRBFHBxZPfqp48MzVB5i6eB+WT+4Kaysz7ja588hVhIVFsVCyXpUi3CHzfamMqJg4FG06Hr//0JpJhhppEwF6z4+cvYOuP6xkgasaSUaAIJ0E90Vj39UivJ8gOPdfIiB7Kd+DJAOfIicg85nV03tyt8bMMDhEveQAslqZon+HmpzjP+x2G0VdcvMCSgsP1f5/KJ997poXvpuyGbsXD37LmyAh2NHCuP3gFWzcc4Gv2ah6UTjmy8bXjYiM4d300bPuIFdCIgpUCklRi3LF2Ht3iQAAIABJREFU82HDjN6cjyeb4lt3fVG76wzUqlAY/TvWYufGhz4BTBToz9QHgRZKqih45BuI9bvP485dH/TrWBtN+szhexg6aRP2LBmMXNmzsn0tNXx6/iIMUxfs4cWcdBIc0Xg5KOQ/Yf4e1mQM616fF2P7KsOxdGIXtG9aHhdvPsTkP3ejddPyMDMzYrtc6ntAO3qK3FQrW4hD97bW5tiw6zz7PlDVxl/z+mPqon1Y9GtnLveklE61DtPYApz0CTsOXmHCYkRRjKJ5UNTRAXkdbEFOoGR2RGkAGq+6Cno9CeB23CcveOKLuiXRvlmFj1YpUGSgx8+rMaRrHdSsEN+5kb79SKgohOatKo/3Pe9xc/7meyXdh3JYTMhPRMp+loTIa3aeRc+fV6XshTPq1YQIlXGhueG5LuTNW/w3QcjdywYWBt5CImFFxRkVuPRwXxIcZl8xtRvv8jJ6y3uq7a/fbSZmjGyLKqULcineVffHbAZ028MHD3wD2d+AavkL5on36a9SpiD3qKB0QIMes7jF8dwxHRKEFZVUUonhiQt3WahHi32f9jX+1ezpzVeGRJNLNp9k5TzpCkhzQM2Opv/QmnfFFC7NX3cUVxR8/9sWNKpeDD1aVUWenPFRBhLyPXwcwLvf/LnsUMI5Jw653cbSzSdx+JwHZo5sB9JiUJ69RnlHPPMPZW3E2Uv30JQW1abl/+UtQKWGrQYtxOxR7VDKJb7xUfWO01G9nCMv3KNn7cS4wc2ZYN3z9kNoeDSH4auVc0ThvPaMN0UhiKxcuPIADWsXZ5fFTi0qgcpvRw9owqkSShNQhcXA8eu5PfbNO48x79dOTKQS8o5Sp0ZqmnXi3F3UruqC+lVd+Bxv9l14hTmRgdmrD7EAldIvNCilExen51JIvdRDFxffP4L+jVIe9GcSJtL7QmZXDXvMxsYZvblMVY20jQDpTBZvOvEyvZi255rWZyeBoXBfNPu/CIKAc98hAmJmWr8ZNb93EJBgh7wp33/FZWyfkodPrxiSKI+Mkdb/0YtLA2mnSaVyzwJCePGKjopBrF5yC2Ay76HW141qleBdOoXOK7aZgoMrv4PTG94C/4UFLfK0o3c77wEba0s2+iGMKYLxqYNK/GhR3XfyJhOZXYsG8YL0xC8IhRuMYfU87cYtzI1x5dYjFCuUg1MCJYrk4dA7OSpS34jiTjlx09OHUxYDftnAqQlyQxw9oBm0WsHEKF9OW+7HQJqFd8kKaQro3WjW70+smtr9tU/E6Fk7sOvIdRZDLvy1ExMCSmsQSaHukSZGBjh67i7u3PcFlVASMStaOBfW/X0O1coW5OgILbhTv/+KrZ2HTNrMYXrCvEKbKVxJsnF2349GbGiBJ6vpN4W39HeaC5VaXrjmBQnJDpGdWrxd0vjqXt0u3UOvUatx/e+xTI6+m+KKkNBIOBXIwaSMDJroPaF7ILyo90apInk4gkKjdpcZmDj0CzZvUiNtI0A/+1TieuHGw7Q90XQwOynENhhZdMG138NfTfftCALZKhvErhRSdkgH96Om+B4EaMGk8jLaiWbUQc12Rs7czgZCtNj9vvwgVm06AWMLE7SsW5KjKdSOmBY2WiQpdK3RariFM/kM9Bm9Brd2j/+oPS9FG6iXw8Bf1qNF7RLceZFEdOQimNhBVsNk77tyajcmN4+fvYBTw7FMEMhAKUe2rNwHweuxP+pVLYL1O88hr70ValR24QZJRIIoGkEREPJPoHJL6vdwYevPH53Sii1uWLjxBA6v/o4XUCInQ7rUQ/XyjqC0C3krUPnlKy8Bqkig85PfA5EiSg+0bVyORY+URqC0CekYXhEESq0cXTucO0Nmq/I9lk7qgpZ1S8EvIJQ1FeSn8L5BaQHSM5Bg8c69p+jz4wpULF+Y+1I8fxHKHSUHd6mLNo3Lsg5jyuJ9OHXpHo6ve6/wGs8Dw5gErpneg6Mi3012hYfXU6yd3osJwuZ9F7F+1zku66QoSatBixAWEYWDK4byHMhZkubdsXmFj2KqPpC6CFC6cdX2Mxgwbh1HrdRIEgJ+Umqbw2P++Q8QhP5lhFZuB6BaOicJ59Q92MLECOtm9Oa68owYSSCnP1roqUkVLf7ccphay0bGsvkQ7YSPnfNAwIsw1mXUqFAYvdpWQ+7s1ly5QCFJWlD/q+aexHn0OYpWTBr25evUDX0hEXEIjSB1vx+8HwcgKi7uXwY9H3oDKJLQc+RqrJjSlQkCXafUFxOwcmr31wThkU8ARwta1iuJRRtPoPtXVeAfEAILE2MYmxujSIEcqFGxMC+8tHjmdrDGnb2/fPSlW7PjLKYt3odLO0az8yI1fqK0x5INx1CxnCPOXL6PX79tiRb1SmK5qxvOXvJEzSoujNOp83exdvd5dP6iMnYeuoIF4zvB/x2CQE2Yru0cw58nTcOySd2YsP3XIDwHjF+P7NaWqFimAJZsPIFebaohODwK/xy7wT4QzeqVQou6pbi1NaV5qHrjWUAoLm4d+cFTl/lyIjo2r4gfejfEiQue7DVBba1J9Em6kHFz/8aZTT/y8X+uPYpNey/g4MqhbHM9eeFermwZ0avBRzFVH0h9BCjlSGlDsjpXI0kIUACvD9wXLXs/QXDu304AGwAZrxZSI90iQCFo2sG1bVo+3d7DhyZOOXLqIfDn2A4cjp6x9AAePn0BG2sLFryRit7K0oQX8pjIGBiZGKJOZWeOKPw6bzdXHWyfP+A/cen+EzVuysoGO5RXfzXmrj7MJX6liubh3ey42TsxdURrfNUgvhPix8a7BIHMiOp3n8k791cRhDcJwsq/TvNOmfP2LztQzll9mDtSHj7rjlt3fWBBHhCfQBDo2sfPuLM2gaIo1FSJUgjUj+CPn9oyqVq2+QRKuOTm6MSSyV1h9dLZkHtDFB2Aod3qcUh+3riv/0UQcmaz5ugELfo5a/zwSQSB8KI5XLzhzZ4J5NA4tGtd3slTROLybW9+XuQlQakLigDQPKnzH1VgfGiQMyN5Hcwb24HPs/3QVXxVvzRMTQyZ9F2+9QgNqsWXxxIuVHFRp5ITX5dSPVfvPOZ0iRrpAwHSIJX5YmL6mGwanqUU4jjuLKz1foLg1G8rRdzS8PzV1BKAAOXJN87sw4tmRho/z9jO5YREEGjVpAWAjG6MjLQfNTwaO3snux5unNn7PyEhkVv3n1dh/7IhyJ096+vPul2+h4Fj1mLbgoHI42CDul1noG2Tcvi2y6dZXlNZVnwEoRvbCtPudczsHVg7vScTBFpkH/r4v44gLHV1Y/8CKll8NcgQaMCo1WjdrCJ2HL7KlRNPT0577/3QYk2Kb4ok0faAmj8NmbyZUyULf+nEteTj/9yNv+b24zTAtoNX0G7AfHzdqiqWTPx/bwLScthUGIZRA5ti3tqjmDe2478IwpOnQSiY0wZGpsZwf/CUext0akFh+peZTPFhb5u7D/34C/78XyNRpGB8K+pXw/Phc0xbup9FpUQQZq06hB2HruHI6u8++AwpKkGkhrp70mAfWcnWFB8d1EGQyNfMn9t+9LPqA2kHAfq5IvKqRuIRoIIfIDY33Jf70Fn+/+OSd4A1zPRPhUTC+q4mfi7qyM+MAH2Z0u6TOvhlpPHTH9sQGhqFuWM7JDiFQmVs5CvgOvu/PcBocdlx6AqWbHbDoE61ULeKC5sMxVsQe6LX6LWsdCdL45+mb2NnQYooRMfpuHUy7fjfZ99MVRCdvl+GSiULIDgkgls+n7vuxYRl9fazaF67BIe7qaSRcu5UAXFl+2hkt8uCK7e8OYxKtsIUGSICSD0EyFMg5OKs9z7iI2fdMW3RPtSu4sICTXJNJO8Imh8J+AiLYVO2YNu8/jx/Gk/9g7F4/XFu8kStxCuWLsgVCQ7VR7wmCLNHt+fozTJXNxbzkUjRztoSR1YPA7Xertn5d3RsVoGrR6jawNiICJwhjAy0vMgTaaHIgUajYYfF3ceusxD0wLIh/3qmbxIE2uH/MG0rH/vn2I4ffK2J3JmZGGH+uPjP3PDwwQG3W8hpn4WtrKn5FaV43pdmovLV4+c9MePnNhnpxyZD3AsJhmnQs313kCFZuyFL2PpcjcQjIKUYBo+FXKjwf4Lg3O8LAZD+QI0MggB9MR9e8x1qlIuvB88oY+bKQ7wIUfiYFoyEDArPb9h9njsafmwQGbjr5YcF64/xokalf7QLpxD3L/N3I6edFX77oTVrHWjH2q5JOdSr4sLmPOQiuGJyN5iZGiIsIv5LLTIqmhdpai71Y6+GLHqkxW6J60kmLJMX70PfttV5F0/mRaSdoEZLc0a3h9tZD+R0sEGDqi4o6pwLVuamvEjW6z4TZ696IfbmvH/dDi1yvy/dh4Gd66BxjWK49+g5vhiwAOe2/PT6C5YiCuQbQHbOJBR8NciamgSVREhI72FpZsJOhJRiWPHXacwd0551GHNXH+H7XrvzDLezJuMmioTMXXsEW+f2ZxLySrcRE6fjOcfExLGgLDIqhk2d6Bp0zPqZfVC+2L/lT5MW7mXhIdlDP3wSiH7j1mHpxM5ctvqhUf3r31GvsjN++Ta+ARUtLA8e+bNZE3V/pCiF0GhQpmgeNK1d4q2KFtJ9+D4PwvjB8ceqkXYQoHeQRMq//9DmX0SS/r3tkMVKi5DExyWFcEdUVGl4rYx6RRAEnAccEtBn7t7BSQQ2rR1OuzMKw9Yon7EIwtlrXli08TiHyCksnpCx9/hNDJvqipu7xvLu9VMGOewtXHcMW/dfZEJC1QVfNSyDK7cfsYrf73kwonV6HFj+LXKxD4VApXZTcYFEUxTWlvHt1iXxcSGQ1caSXQtJNEnOh8MnbcK33evDdf9ljlbsPXGTBZBkY0wEoesXlTFyQFN2L3xzkFlT9x9XMuGJvjGPd+Uk4iMSsmzzSVy78xizxnRAkULxIXvqH/Hjb1uxaFKX19ECWqA7j1iOOSPbwjH//82U3rwO3f+6nWdZt9Dly8rsATF7VHvuXjlr1WFULpWfKysoEnBywwjU6z4LhfNmw5KJnT8FXiYNc9ccYWK0bnpP5M1py6kASh2RIHHHP5ex6WXPkZ4/r+aFv2/Hmm/ZQr95IaqKKPPlBMwa1R4tXvZVIAMpErMSBl1GrODUg05KuO69iBVb3VAgpw1++7EtqpYpiOG/bWGTKjLhUiPtIEDvdvN+89jngxqsvRsZJVLb9YcVTDbVSBICL6QGlXB70d14guDU104IQX00M4cVX5KwSz8HU1j42LrhXO+dkQYtgLRjpzx+VstP9yIgDLx8AlC70x84v/VnLg9MyHC75Mkq+4qlCqBJreIY+OsGbhpDCxLl+Ds2KodWTcvjy/ql0Obbxdh95BpMDQ3Yn8DYxJjFhFZmxngaEMIRDFpQaXd98aY3tu69iJOX7iFvLpv4/gfez7krIeXDqY0zORe+O2jBGzFtK2atPIQRvRuxk6Jep4OhgQHvjGmer9wJP3SftJOnhZ9KHfu2q/FBOG54+qJk81+YIFCVyNhvmrJhk9ZAiwZViiAgJIItk7fNG4Aq7X7DyQ3fc+UHpWqIMH0s90+fo14I2/+5jFmj23P4/+fft8HM2ADf920MX78gTJi3G2WL/q+9q4COItmit3rihBjBnYQIEtzdXRaHxWEJ7ou7u+7i7gssLO7u7pAECO4aiCcz9c+rkHwknkkyM6k6h7Ms01396nbP1Osn92YTRFMW30U7fjaaChCJJ4Pop60szQV98/zVR8CZIpyaDx+/wDFneiG0ZW5iBFubVOJ6xCNCrZg1Os9DnzaVBXulHLqDALXckjP7ycdfyHJTTcr3qQaK7lH7rqxDSPA9C/zWzbAuzEFw+aM046p9ALdK8NRyAp1BgMLipzb8KX74DGl8/hKAsq2mYcs8918K2mJaJ711F2wwAS3qFBV99nEdVAFPpD39J2+Gb0Aw3r7/Iih5SXvg/qM3GNe3gRBNKt18GjbP+QPZM9uJDZJY/OgNn+oYBk7Zgupl8whqZRq0OXo/f4fPPv54/uYzZq08LASU6Biq3o/KQSDngvQohs7cLnL9QtkzlZnocIhpQ/5+3YNnbMOrtz5YM61DjA5CxRLOuHbzEVo3Ko029UvAMQexIjK0G7JKiC11b1lBRBDu7RsjnBPSiSA8YqNtQOshxUWqhejxe0VBWNS6QQnhDGzbfxX9O1YVWgoxRY1I0XHL/iuCfpoG3fNnLz/C2FgFM1MTmJoaCeInSn/8XINANpRvPRMLx7QSZFNy6AYCtPmP+3s3xv61WxhEhbkn1g2Am3OWHwzsNGItiO9DjgQhwDn4fHh6DQhzEFy79mMaTmXQ8WeASZA98uTEQCBTehscWdXvBx7+xLhOUs8ZHKIWb71UxBceQo6LDZv2XBZ5fxK5Cpcpjsv5RLTTvM9SsQmns7fC7CFNBbXvtkPXUTxfdpibmyB3zvQY0bVWxLR0ztj5u8VmT6JOXYatQaXSLkJ1kByOj1/8BMNixWLOyJElDbwev8HcFYfh9eydSKWQ/gHRLZNq4veD3rq7jFwnBJx2Lugel2VEHEs1HXtP3MKhlX1/OZ9C80SoRHUXpLNAmhMT+jUUjI+UArhw/RHmrTsqlB3PbBokCKmItvnBwfFiQ243ZDUUBiwZ11r8f0yDUkDUpUAh5AUbTggHiQiZKpf4fz1BdHMEBIagx7iNwrkiGW9Kj7z7+FU4TsTTQNEcwjAqDoxz172Fw0WREBJ7kkM3EKAoXZYKQ+DrFxhhUJcW5bFoTKsfHYTha0XKSI6EIcAZtiHUpANDkS7G8FXmM3D3hE0pz9Y1BMLaHDvHOZSua+uIzB7a4EkJkRj9IhvhhXGRFTESBXOltrMEAVK1b1LRsV0zbZjN+y0VQk30BrpkQhuxebUauBzjetfDrbvPkDVzGtSvWuAHrQA6nih/Hx2ZKC5FP3ikcEjpEuq39/R+I3Lkl249ATlAlFIgX8De1hKe3q/h6x+EL74BovbBzTmz6CqgceS8B1r1X4bmtYuJYsb4DNqItx64KqTDwwdFSog58dHTd2I9ZkYqVC7jKvQgyC7iDViw/jgypkmNKuXy4snz93j+1gfEvvjk5UesnNRWbMJEA02iUtQyWL1MnmjNI12KwdP+RcE82UTb6Px1RwUZFHESUGohvOAwukmIYKrr6PUiGkJU1qThsHHPZVQt5YpPPn4IDQxGKksz5MyeTrBRUq0BUWaHF1NW7zgPJQvmFPcyOiKt+OAsz4k/AkReRXTg3w9iSb26fbi4hzToO99x+BohYy5HwhDg4Deh1tRhcOxlBVXwGgY0SNiU8mxdQ4DYA4ltkH78DG2Q4l7D7gtFmJFy78TJTuHHwX/UEPoCB07cQp+JW3BrzyjBivfz2LD7Em55vsDEfg3i1CpJlfe/9VgkWuYo/3l0TX+xkZDDMm9EM5iZhLUK/jzoTZ8IePYtCwt706DQNxEhjZq5DWP7/yb0BajQijayqUsPoEa5PCAipRIFc6JKCRe8//QVCzeexPFTdzBxcBNB/kRdFvW7/Y0R3etEqU0Qfr2oKAAWbTqJfw9ew6EVfUS6g+SS9x2+jtH9G8I5ZwZRgEg/xo2qFRQ/wrThLllzBDNHt0TRfDki8CPHhlrMKOVC7Hb0g37ykpegLN5z/LbocIiO2bNo48mCNbJLs7LinlEkgZwmil7E1kGgEHPWDHaiRoIiBy37L8esIU0E/TPZRuqYFPnwfv5eYEsdGkSQNLpHXSGMVbDBeFz6d1isdToM7Xuli+shxzFr+SHi+/LzICIz+kODUniU0iIabTkShgBJokCNkgxOXTOD8d0MiB0VXMKuK89OQgR6tq6EOcObRVntnYSmaP1S4m1h2BrYWltg+p+NxSbdcsBy5HHIgJE96iAwMARtBq2Ei0MG9GhVEaRgSOyLRMlcslAuoaL4+8AVmPZnozgXcfabtBlz1xwVHQ17FvfEzJWHBSvfgA5VI33rpB+ukXN34tg5DzSoVhCdm5aNUICkdVDxVY/RGwSHAv3Y0RsROT1UcU/piIxprcTGVreim9igiTWu89DVSJ/OWhTaUXU36UP8XJD4fTaCcrhhREG/ugk0N/E5WFqYwePBSxEJ2LOkJy7efAR7u9RCH4F4E168/iSuTVMQCdLPBaJkGxVX7jhyAzduPUHrxqVRuaSzsLnt4FUonj8n+neoEumzQGtIV3Ig/lvUXURkwusrCIu/NxwX/za8W+1onyOiVKYWSGrZpI4Pkttetf2cSNFElUqi6wg5aHAMn71DtNCtmdpeRg+0/o2N34TkIE5fdhDDZkXegV+iQC7RqUX3lxwI+k5T548cCUeAc/4btTc6A5qzDJDapgnHVKdm6NOuinh7MtRQKeXpiZ6XCIsKumYVefBuYzeI4j/SSDh89q7Y7JrXKgr7NKmR2sIUtqnN0eAb5S7R7w6f9R+Orx0gwtGxHdfvPQdx/dNGSboBFObf8Xd30XUQ2aCWxQqtZwrtA9qER/WoC5dc/28ppKhBs75LsePwNaya3B4LNhwXaaEcGWxRqmhuwa0Qbh9V5LuPWg+VkYJCrtmQ1tYSTGEiHVDAOTOcc2UQmyupW1IxISh6olbDJXdmFHfLId7Ifx5EvES5+zJFHASDI3EjPH/9SfAblCviKDZQkkSmbgkiGRrRrbbghfh5kEIiVZE3rVEYDasV+oFXYcbyQ9h78vYPaYzw80kPgqIFfoFBGNurvlgrrYGiKAWcs6D3xM3Csej2ragzMowpgkTRgj87VxOUyvTM05pCNRpx32MaRMbUYdhqrJnaATmz/NoxEtP58vPEQYCeQ+oIImc1spE9cxrhzFKBrI9vAFr0XYYDp+8kjjEpbFYONoLBuXNlBtWRFLb2FLFc4tr/e3TLiHy1IS56wsJ9opNgxpAmohiO5Icpv08shrmypUVGe6soyZRoEyJlxcCAYKE7EM4kGBucKM9NYk5U8EbXoVwoCQH9POjN2KHKcORzziK0MbJm+D9lMm26RN7Tqs8SWFpZgNImRHk8Z81RIeJkamqMSzcewTGrPfp1rIa2v5USaQ2St73l8RwOOdKJzocQtRoOme3Rp2NVEQ2ZsewQlm0+iWHd64jIBgkbte63VBAmdWtV4ReHkSr+iefhzfsvyOeaBSfOeqCwWw7BdUAdBKPn7BBv4w+efxD1D2und0Qex4wC1+/jEdRC2PbPFejboSoqFf9RcnztzgsiivL4Ww3G9zgRnwSlh4gWPNzxIGwmL9qP4m7Z0XX0Rgz6o7oo6IxsUFqEzienYEyvsHBzXAdFgSj1MLxrrTilnOJ6HXl83BBY/d85EPcFfVcjG1Sjs3FWZ+FEU/SKFEkpdShHwhHgwD8Mzu4dGLAi4dPJGXQNAfKu9y3tJXLyhjooz9xl1HrB8FehWOSEUPTb4h8YJFIMX/yCRCieCtPsbSzFZkCpiiJ5s6PH779unlHhRsV3+euOE4WDxdxy4Nymwb9sLJSTn7R4Hy7eeIxVU9sh3TfeBdrQiNVw55EbIK0F0i1YNK61aOOiaAilL+jHTqUwIVS0emoHsXldvfNE0BrnzZ1ZvKkT1fCpy/dF+mFU9zqiQJAiBPTW5eMbiCcvPoC6AupVzo9KJVzEOTMHN0G2THYiSkAFgFSfQpoST15+wOyVh7FhVmfYFx+AmUMa49NnP3g8fos2DUqIdAeR0FCkhnQTOjcugzy5M6JEgZxwyJpW1Cj4BQQJeWqSh25ep5hILxTOm01oThw6ew+NeizEh4uzf2lTvOX1AgOn/isEtMKdNMKIFBfpnrqP2vCDg0AFmxS9SWVuKmomqO9978k7gt2R+AziMujZOEv6GmM3YNOsPyJIpeIyhzw2cRD44heIiq1nCkKyqEYam1RYP7MzqpdxFRToFFGkKJscCUeAg11hcHIfxRhi1opN+PXkDEmMAL1RDetaC+P71E/iKyfd5ehNc8fhG0LOd//y3hGbcLgFJDJEVc0kHUxqjw45M8DEWMFtzxdIn9Yao3rUEeQ5/SZsRoPqBUWRXGxSMkQwVK/rXzh81gN92lfF7CG/8vZT9X2bwStxcFlvQUNMgzoolm0+jQvXvdGsblEs33pW6BgsHPu7WMPBlX0EQRDpK1C4n/L+s4Y0FVoPRH1MGgcuWdPC49k7rJ/RCacvPxCSyET4k8bGEkbGKtEWSE5EgypuQmehd5tKqFraFaPm7QSlR2wtTVG0YC4Uy5cdlBY4cvoePB6/gbGxgg0zOyNDmUGoXsoFl24/xvktQwWh0+zVRzBg8hbkzpFeOCKt6hUTAll7TtyGa450yOuSBbfvPUOpIo4oX8RRECidu+GNo2fuoVbF/Mie2R4Nuy/Ao6MTf7lH9MY3cNqPDgKlXXqN34TmtYui07C1EQ4CUS4PmboVDrkyYMgfNUSXAtE6U1tirqxp48T/QPeDtDEa9VwoaJWJGCk29z7pnu6UfaXJi/dj+Ozo2f9JoXXzvC4iFUa1LxRBIKdRjoQjwAEfBhf3lYyjfcKnkzPoIgIUAj63eTCKueX8IRysi7YmxCbSNKANddWU9qJHn4bn4zeo0GoGqpVwxtShTZEp3f/fLqldcdxfu7Fk82nc2z8Wn774oX6XvzCkay20rFs8RgZC2sCobfHvdccwbVATDOxY9Rfz9564jcEzt+PWzpFCC+Dq7ScYv2AvKhZ3EimDUKJKHrIK2w5ei3AQ7u4ZjRb9l4n8+T3v1yJ9Mq5PffRqXQmzVhwScs2rZ3YS0QAqaCQHgaIUl7cNj6i8p6LII+c9MeWv3TCxMEX/9lVw4Ow9wa0woEM1cf2fx4jZO3Hm2gMRrnWqMQoHV/TBvuM3QbTW5KBsO3wdpIRJNMjELVCxeG40qFwA/SZtERLN05cdQEioBqN71EG9Km4ilRK+2S7ZdFKkfm56vsCa6R2EABT9hFPBKO3oF248wvKtZwSxVHgxIeFLXBfU2dFx6GoM6lwd9Srze+AvAAAgAElEQVS7oduo9ULU6c6+Mbh6+ylmrziEQ2v6R1oTEdPzROmf/pO3iEjE9MGNYzpcfp6ECNB3uchvE0VdQXSD9DjoxYCKWUmIjAqTo0pHJKH5BnMpBpeuBxnn1QxmRXIhvyCQI4s9tv/VNVJ1QUOBKzAoFD3HbUD2jHYY1r224CCgN9DV28/Bc/84UVz3/aBNdNPey6Ib4OqOkSK0LFol5+1CobzZBJNfdEJQ9CN04tJ9dBq2Bp2alsUw95q/QEkbWdcxGzBt4G+4efcZuIajZcOSEcRVFCoPdxBWTW0vqITPbByE9kNX/eAgVCvpggolncXm2a1lebERN+q5SOTbyUG4eu8pNs/5UZ2SIiu0AW7YeQEvXnxE1Qr5xBqp64FSLPTn+/VRIWWHoauxeW4XONccjVWT2wn2w/0nb4tox7mbj3Hw9N0IB4G6CupVyi9C8xP7NcTEhXuFQzB1QEPc9X4DWwtTNKxVJEI/gmwhrYXLNx8LpyNtmtTijZ1qOMhBopqLVnWL4/cGxeGYLZ1o96zffYEgmyJ63XKFHGBkbIQ7918gr3NmFHLOgjPXvAUGxGdAg94c6Txyimlt0bVU0rHk3F2+/QRzR7aIM2W3oXxvdHEd1I0wYcFe4fjS9zS6QSkuUhCl7wYVupLDJ4f2EKAahJsMyK+9KeVMuoYA/XDXqZgf66Z3ENz0hjoop951xFrUrJgfVKBJ4eg6Xf5C7mz2mDG0GdJ/q45/9OIDhs/Yjmt3nmLFtPYoXcghYrN8++GLcCyMjIxEu1tMapFVO8wRee+1kdAUHzvviaZ9l8BYw7F8ekdByvQ9myDJJVPfNpEo0cZMEY19y3rjj5Frf3AQWtcvgZlDmsLeNpXYhKkIM9xBOHnpPnwDgjCpX0NxW8lxIS2CUXN2wOP+S2TJao9pAxuJFEer/stRwDULSFOC3t7bNiqNXr9XFMWQVMtRo9M8oSpZ6LeJEQ4CzUkRg36TN2PxxpOCwMk/KEQUhdUun0+85RNBE8loGxmpcH3HCJgaGwmp7C0HrmLjzM7i7Z425BOX72Pw9G2g9RCnQmaKMgBo0H0hLlx7iFzZ08EpezpRD9GuUWnMXnVYMCIuXXsM3dtXFU4FyUu75kov5qO0DHU8aDQaoQ8xbfE+fP7gK+owLO0s0a1VRbSqW1TQK/88/lp/HOu2ncPuZb0iWk4N9Xuhb+ui6EGtzvNErUtMo1fbypg7rJk4jJ7vTXulUFNMmMXlcwbnro8ZuGGR9ccFgRR0LIVrZw5pYtAUsi/f+qDeH/PQu0NVQbVLjIMHTt/Fok0n4PvRDxrq57W3Eh0BNcrkgbnZr8RGtMFMWbQfr998Rve2lUSRZ1S56RkrDglq1+s7Rv5CSEUOQpdR63D+n8GCfIgKGzs3LQNXh0zijfXw2XtYvukkXr36hFxOmfHy+XvkzZMVDx68QijngmwoODAEzk6ZROieWhhpEw53EEb1rCPqFyi8Wq6ooyBNWvbPKXFclkx2GD1/N0Z2qy1qEiiXTw7IyintBa0yORak8rn6n1OoX7MwCubJim6jNwhHpUijSREOAr2RU4sZqS0+evQGZsLB5EIJk2yhyAC9vQUFhSJUHYpSBR1Qt0I+TFtxEC3rFBPXIArpNVvP4INfoKg/WDGpbUQqgTYDcnZWTWmHUbN3oGRhB5Qp4oiXbz7j5TsfZLC3QraMtrh464nAKneuDCiSNxuGutcSztbrdz6o330h3HJnwuhe9ZDe3ko4COQskqzz+WsPMXNYU1QtnUdEFCiyQoWUa3acF84QcfrLoVsIUHsr0V3HZuxa1BN1KuYTrbg5qwwTdTpyaA8BchA+M/C4lf5q7/pypiRGgBT7JvRrYNBvTbQ5jJj9H/I6ZUKftmHEPPTGKcKVDCK8HlMxGoU5D566i3X/nROFdxVLOoed81P905NXH9F3wj+4uHUI7KxT/XA3yUH4feBydGtWDrWrFADRF+88fB2v3n9BizrFMHL2Dswf3VKQItG09DYd/t/wichJOHbBE9v2XcGqaR2EQ0OpCWqznDygIfafvAO6DkWGsme0Ra1KboIbgchiDp69J6Si9x2/hVb1S2DXkRsY5F5T0DofPe+BPztXF0WTR8564OwNbzx5/kEIYJVpORXDu9VB81pFhJMycOpWoXlBUQNyCqIaZNeQ6dtw/LwHGlQvBMcs9njx7gscsqRBpdKuInLx8MlbQVxEWNJmXa/r3yIqQdwQFNW47vEMHt5vBOkNiTLRpk7z3vd+IyIXZFOdSm4RNQfERNlz3EbcjkTxkmo81u28iN7jN+LGrtGC34AKGi9e9xbOBJE/yaFbCJAz61prrGANjWnY2aTC46OTRHsxReOsi/yqJRLTHPLz6BGgIsVgxhE5P6xEz+AQoJA5FbzNGNzEoPu933/2RfuBK5DHJQsm92sYY6ogshtNbyVErTxh4V4hRTyie23BQ/C9j0CbHDkjJEZEaZzvB23cbYeswthedUVNRKiGixasUCHJrBL5ctoEWQzlo3QN2jApdE+D3tpX/HtW8CoQPwEVM7ZrWEq8OVMtRjgzIOcaMKbgHbUzGqtgk9pCeCEkeEMOEwkXhbsll289xa5jN/Dv/K6o1GaWoHEWLIiga2tEyyWtIbohjg1RC+VK2tip5oLWqahohUwwRhKZFKU8aNCa8tQZi1rl8/7gXAl8Rd87w5ev/qKNsXW9Ehjbp76QZv6ee8HPPxjlWk2Dpbkplk9pj9zZ00aYGBwSihFzd4q0xOOjEzFn+SEcPOuB7Qu7GbSDrM8/WpRyW7vjfKyW0LFJWSybEKbF4v3sHRyrjYzVefKg2CNADoKGcYMucI89GinkSGNFwaA/amBg5+oGHWIljoKh07fBwsIUlKvMljHuZKG0T9HbCYXkN+44L4oFa5TLC+KYCB9EAESbEdUBkAMmNmjORQqh5/iN8DowXqtPFqUYqJ2LKKUpxWBiYozxvev9cA3afJ+8+IjHz99j0T+n8Oj5e0zu31B0FzjlTP+Lw7T90HX0nvAP/p3vjmod5oDSF9TxoM0xbDaJ7fCIegmy0bX2GFFk9j2BFGH3/PVnHDpzF0cveIpoS61yeUFOn+fD13BxyPgD8yVFCtbuuCBaWW3TWCJrpjQC/yfP3gu1zWa1i2Lznkvw9Q8WAl2RpZW0uU45V/wQIO6P6h3miGLhmAYVt26d746GVcMUAqhYl1qA5dAuAtJB0C6eejObEVX5t60sFPIiYwDUm4XEYCjxFWzccwl7jtxA/87V46y7QG/k/cZvQtliuVG1jCtOXvTCkbP34OyQEW0alhRvoh6P3ohWvJrl8orQOREG0Vv667c+OH/jkWijJLKghA5yPKgl8N1nX4yZswO/Nywp6KUdc6T/xUGgaALpChDb45KNJ2GkMJQv5YLxvevDIVvaX6JH5CC0G7xS8AEMm7kd7RqXFpGmfLkzJdRscT45AxXazBQpj64tykf8288OAvFWbNx1EWcuPUDdKgVQ+Tuaaao3+GvtMVHTQCmL5rWLgPrgwwelIqjY8qtfkIhc2Flb4OGz9xg/byca1iiMFnWLwdqAi3S1cqOSaRJy6OauPopBM7aJ9t+YBrU3Hl7VF/RfGhRR6zx8TUynyc/jiIBMMcQRMEM6nMLGM4c2Q6/WFWPMyev7uonGuO2A5ejRtrJgBiTFwejG+09+MDc1EgyBJMncc/R6BIWEYtbw5sieyQ5rtp/H+m1n0adzdZRwyynYGMnZIr2D8CGUEZfux4ZdlzB7aBPx5m5vkxpGRooI+dNbUGwHpSO++gbApdpIdGtTGblzpBM1FUSTTAWDTWoUjphKlEp8y4PsOn4T5YvmFhoUe47dQtH8OUQ3wPfH0InE2EiES+4tyol0wpkrD0XU4Z/Zf8DS0ixeIUZR96HRiBqCuSsPY+/pOzi2ur/AlAatKX+9cdixoBsypbPB2WvemPz3HjSsXgh92kcu6kQbCVW3V2k3GwhR40/3mmjbsBRSpzb7IQVCcxNT5byVh7BmZifRnimH7iJAxGBUj3LmyoNYGUnP+/JJbSMcb+IXGT1vZ6zOlQfFHgFZpBh7rAzySNpcqKq8bcOSBrm+7xdFRYJzVx1BUFAwmtQqiiL5s0dsKrSh3H3wCg5Z7UXb3/SlB0RFNL3B1qmUXxw3c8VhrNp6GkO61ULHxmUE/fCmnRfw4Nl77Dt1B0vGt0bZIo7ikhF1CpzD+/kHQQP75OVHsfnSh2msLdCpWdkfMKfoQ1T1COeuPUSfyZtRs0wewVJI940mIpri168/o12TMjA3VuHclYfo2rYSLlz1Fhtpm99KYefBa6L2oXPL8ti066LQnmhWvwQ2bD+H3A4ZRJpp7bZz+BoYLBgXhf2c4/HLDyAhp3P/DIpzlInSG0SvbJ3aAq/efkJqCzNRKPm9yBNFFUo0nYK65fJCMTaCTSpTERUh5sbIBqVWiHDpys1HcMyRDtXL5cN/pCOx9QzG96onOlNo/mv3nmLTrkvgDCBFUyqClEO3ETh3zRvlf58RqZjYz5aTc9uvfTVMHfhbRKqMnMuyLafp9iL10DrZ5qiHN03bJlM/+v2D42BmYvi1qpRyuOnxDHNWHkUh1yzo06EKjI2NRAicqI5v3XmGKUOawDF7Wjx8/E7IBVOrnJWFCT77B8O9RXkRJaAwffggx4NYCol2+OTJO2AmRsiW1V5U6VOMII2tZcSxCqMaBS50DmiT+34Q9zzVMkQ2SIuBaJFp8/w+8EBcD3uP3YR7ywqwsjDF2Pm78PbiLEFc9N+h67j07zChgXD/8Rs8Oj4ZlVrPxLsPX3Bi4yAUbzRJ5OdJbGrApM0oXcQR6dNaCQeGCiHprY7ywdTmKRybOAyiYyYHKr29tXjLI3+Gih1p0ExfPn4Bpbny5cuOdg1KCg4EUrCMLqhC7JJUlEmET6Qnce76I0yctxP58mZHpyalRZRgwfrjuH77KdxbVUDxAjlijBTFYUny0ERCgL4PpVpMw8UbkSs2/nxZaqtdMLqlYNkMH/S8pikxQBQVy6E9BCRRkvaw1NuZiubNhjP/DP6lj19vFxQLw2kjnrrsIHYevoFFY1sJNj5zMxMhFTtsyhbUr1lUCMBMWrIPr15+wph+DQTzX2SV/BR9eP7yI+xsU4nuABJborf2Xh2qonTBXEIRMbytj0h9ohCmi7D65/B/TMtZuPEE9p24jSqlXPHXumN4d34GJi7ai/8O3xTtl417LoLX47dCB6FS21mCI+DmzpHIU2cMShXIhbcfv6JcMSe0qV88pktFfB4bvvvwKAo5BESPrwkNxZV7z/HX2qOoUNxZSDP/3BoaGwPImSP1xtNnPTDn2727cucpJszZgYIFcoo6CuoOkUM/ECAn1KHqiFhTJFPEa9eiHhHRuvBVDpm5HdOWHtCPReuJlZJqWU9uVGKYSW92v1UtiJlDmwihn5Q26M3l0fMPWPPvWfHmTnwHVGhIRYYrtp7Bm3c+qFzaFRVKOEUZXaFixGlLDuDyrccY378hiuTLLhyAoOAQkVO/cPUh3n/xF6qLRHNctqhjtLS+JBy16+hNlC+WW3AbUEskFeW5OWcRWhNEtpTXMaMQGbKzscCnLwGi4CBbBltBCEVv7e8vzIzRQfA6MA65q41EYHAIqpXJA1vrVHj17jOyZrAThZBUfEmY0Fs7aVi8evcFVpZmcMqZDp+/BODgmbtC04HEm6IaHz754sh5D/h8CUCpQrmQO0salCziKMiUUn/Ty4jPM0f3jWygNs1Tlx4IUSiKcFC3g0uujHEWbIqPDfIc7SBAUTZi1yQF0NgOqmHZMLOT4Ob4fmzdfxXN+y4VrblyaAcBchBWMs6lWJN28NSrWcxMjOCYKQ2yZEoDJ8cM4ke8WL4coggvJophvVpoDMbSG+nj5x+wac8lXL31GBMH/AYXx4wiGkCkSlEN2ri7j1wHKysLQXhEuH1PwHTP+5U4P2NaG7x5/0VIOFMawuPBK5Qu4oDW9YqLKuzwc2jjI7pj4h/o3bayiOjQBj592UH80awcth64ipOXvVC5hIvgGnj19rNgJLx487Eo9Dtw5h46DF4pyI72n7odTQThC6b92RiDpmzFssntRMqECgmpLTOfU2Ys3XwaGdJawedrIGytLUQB44hutQRhk3vz8qK4cOv+y9i45wr2Lun5AzwkI03kRKcuesLFMRNqls8rtBUyprUSkQsiZiIuhISOew9fC6U/pxzp4d68HLJktE1REbCE4qcr51PXSq3O84VTGttBxb0jutcROhzfjzNXHwq5508+frGdSh4XAwJS7lk+IgIBoYDGieBGBTtLM2TKZIfShR3QvFZRFMufPaLy3JDhIgxIcZBa6egNt1H1wnBxyCDepql2geSSif+gSJ5soLfjCQv2oG4lNwzuUjNSh6r1wBUiVz6pf5hOQjjO9JZ/9+FrnLp0H0QNTUJSRB9MjIrVOs5F3Yr5Ra2BrZWF2FCJz4Hoh8mJCQgKFpv4kxcfBK3wRx8/QaBEojU0qDCRdBECA0PEe9QlSjH0WhyWYjgyERXbzsKV20/E8cSFQTTG4YO6Fqjl9cLNJ+Laz159FFLYVGBIhX+ERY2yeZHawlTwK/w5fRv2Le2F528/4/rdZ/B++g4kDFappBPyO2X+JX2wed8VTFuyH73bVRFdF5R6ie2gx5NY9jy9X2P3sZuihbNfh2pwc86copzZ2OKlL8edvfoQzfouxcu3n+NkcrvfSmHBmFYwN/1/3dTdh6/QqAel097EaS55cOQIhMk9O7t3YMAKCZJE4BcEOMRGQTTD1BNfrphjjGx6hoAivSFTdIBUDB88eYesGWxQp3IB8bZO/37vwUvsPn4boRoNBnSoKnKhP3P605tRriojBKlSuUK5UKKQg9Ah2HPiFu4/eoPOzcqKugcqrnrz4YsgBiKn46bXC/j4BoqQORE0nbjgJTopaHNOY51KXCcsqsGESBFV/NHm+X1NAKUGHj19h037r6BVraJYv+cinrz8hCkDGmLL/quoV7mA6KKg9XxPnRyufhiu9Ei1A74BwUJpcdz8XYKXgHrUqZvAKVtaQULk6phRFGFmSW8jbKCaAoo6RDbIAaP2SZorZ1Z7jOpVTzhF4Y5TVPTX1E2y69hNkVahKE3xAjmFMml00R1DeA6/XwM9k+TxUX2KIUX3/l5/HH0m/vPD8xube1csfw7sWNhdaHWEj5OX76Nh94WiY0eOhCPAGa4yOHeuzKA6kvDp5AyGjAC97Y3tXR/92lXRWYpm0g149/ELPvkEgDoCaIMNCAoBdQCEfqugD79H9KacytxEsOpZpjKDrZU5bKxSwSa1WUTlO21o9MNMss3Tlh0U3AN921YR/6XPqCaAJGYL582Gzk3K/pD7ph78YbP/w8ZZfwjSpK4j1+LN689o36Ic+n1TJvyZB4E2WAqd58hsF6aAyDk+fvbDnfuvcPH2Y9z2eolX731E9T9tykQSRPoC9CNpb5calhYmom4hlbkpTKlIjwEzlx/Coo0nERAcgh4tK6Bfx2qwMDMWtQWUvqDoxOevgSKnT29xz19/FG2ZX78GiDQGzZ03dyYUypMNBV2yCPIhikyQE0LXCXcqyFkp32IairrlxLTBjaPtHqB0Rps/V4hOjtXTO4j1LdxwAp2alolgxqP7RCmZ2csP4sbtpxjaq67QgiBcYtLRMKTvoYhorT+GfSfuwNc/EOamJsiZ0RZuebOhXBFHFMmXDbmyptXL9Ap9hwZO+xezVx6O8y0jJ4lE0KjmJ3ys3H4OnYaujvNc8oQoIwj/MDh3cwY0Z0nkTgIlEYgOAeLWb1WvGIZ1q408DlQMFrfWN22iSxvnLa+XuH73Ca57vMD5G954/OIjgqjNiZjY6M06XDuA7PzZVM03fnHx+s3BFQbFxEhw+mdNb4PsWe3hkjM9sqS1Rvr0NqJW4P1nPxw/5wFrKwsRVcjjmBkuudKL4r3vsaCNvnL72QgNUYsN7/qdpyicJyvaNColWvkiG8EhYW2WqzefwuH1A0VuPezNGmITJ04CX78g4ZhQFIHmoetQBwJJVL//6IuPPv5C0Cg4JEQ4RHS/xGYeFCLOMzMLC+nTv1GVP5FFkbYE2W9tZQ57G0sRMSLniQiOiLzoe96CcLs37b2MKYv3Y+30DiKVQIMcqfPXH6HtoJWYP7L5L7oU4edSqubOg5e4dOMxtuy7gnRprZAvVwb8VrOwSKt4eL8WNRpPXn8W665f2Q1lCjsk67Omzec2prlIy4Kq+o+cv4fN+67i2Nl7YPQcR/ZVU2vEvcycyQ5VS7qIWpKSBXMJhy6y+xbTtZP6c3rGqP6Aal/iM0hwi1ROaVB6rEr72SINJ4d2EOBgIxicumYG43sYUEA708pZDBkB+p2it8klE1qjcJ5sSbpU2uQ++Pjj73XHcOT0XXg+eSuodcWvZ2L4Kt+cByMTI5HvJ8eB0gQlCzsK5+FrQBBOnvNEamsLtG1QQvAFUNieGA7pbcb7yTtULOEk3nLS2Pyo9PgzcCcuegnlxyUT2qB2+XwRH1NelYoJq5XLKyIVZBL9CO4+ch2VSjmja0tiwYz/bdi4+xJ2H70h4KN0Q7q01iJqQHTHf41uhRIF/s8MGX4VWl+30esRHKrG7/VK4Ox1b3g9eAk1B569+SRUK69sGx4puRJFc/aevC04GzJlsBUpg+dvPmPdjvN49eYzKpRwRo5MdsidMwMyprVO0Nrij0rSn0nOHjlHc1cdxpnrj+Dx8JWIIMV6fDuWamRKFXLA0vGtdb5uiJxKElh6+jJ+mzo57dSNQzUHnYatEbTmcmgPAc75bwyOvaygCl7DgAbam1rOZOgIpLY0w+kNg5Avd+JHEmhDomK8ZVvPYML83QiIgkwoqTAnR4Xexbu1qyIEjYyNFRDV66HTd9GuUWk0rVlYSC5TO5axEYXEf7XMnyIdHIJymUbldrNRtZQLRvf8sTJ728Fr6DZ2A/4e1RJlChGngqnga9iw6yIm/70bZ/8dmqAWVcI2jNApzMmijYrqIlr2X4ZqZVzRt13klMfEDNmk92I0rlEYgzvXEF0PVBNAOgilmk8VRFL//d3th3w57WHUMUJtpBQB2nboOlZtPo2yxXNjiHtNZM+URmfTV4n1bFGqhlgn+0/egr1Hb4BH0zUTFxvcHDLi/LZhwmHV1SEkvfP1SJBvP6xrbazedgYv3vro6jL10i7SqIMaJRmKdDGGrzKfgbvr5Uqk0cmGQKa01lg3sxMqFMudKCFg2ogv3XyCbYeuYfGmk/D56h9WpaUrg3PYWFlgRLfaaF6nmFAYpLeZvcdvi3C/c670oqiPyJWI1S939nQRDgNt/MRpQOkCigjMXXMEw7rWQs1y+ZArq72oj6CNm2RsKUdPb5REqWxONRJGRuLNm+ixiXI5oZB4PnqDGx7PoFKpRLcGOQ3Ec3D+urcgVCKH5OdB92bmysOYMG8XTm0eHJFqoONI04Gq06nSnDoeqIPi+r1noi6EWjdpTZTeoPQLpWhi0sXQldutTTsEl8TpO6LtdduBq/DTMgMgpRhmDW2Kri0qJPj50Oa6v5+LHIRUBXoLro/4DnI6E/r8x/fahnweB78JtaZO2K+ti3t/xjGVooyGvGi5Nu0j4JIzA06sHxBlbj0+V6SNkTanGUsP4OLtpyAVvziFW+Nz0QScY6xSUL1cXqye0h52NqlEGkCtVgsSoxdvPoHokJ+/+YTTVx7i8xc/lC7kINojqYKfKIkpJE+92/6BIXj2+iNyZ0+PSiWcRR3AxIV7sPvITWye546smezEBv73huNYufUM7u0bmwCr/3/qJx9/IaVMVNtUtEnFhzc8n6N53yVYOaU9KpdwjvQ6lC4gdcsCrllFqyYNikCQA0BdHqcuecHGOhVKF8ol9BCoviFzBhvYWaUS6YyU+MNOjhWpi85fdQR3vF8L/onEGnUq5sfa6R2jJeZKrGvHZl5ynrNUGCpqaOTQLQQ4w3aEmrT/5iD8UZpxZT+AyCuodMt2aY2OIUB9+ac2DIxRSpfeGGhDpOIz6mO/ePMJbnk9Fznor75BCFGHIsAvCJ8++uKDbwDUccnB6gAmtSvmx8aZnaKUdqbNgQodqXWSmBWv3n0qIgwFXbOhaL5scMiaFipSejRSidAw9XjThnvh5iPxlvn09WfR2ijIgVqUE4Wi2hjExUB0zY+evYfvV3/R2mhiZiLSJA2qFkSjagXFZShnTOkH+kPdIVQISfZ4PXkriG6u3X0qjiOOBVKQJJbFtLapvglLacNS/ZxD1M589sPFG48xfv4unL/1GCyO2hbxWTlFl+h7WapgrvicnujnUKSqVPNpuHz7caJfS14gTghwDj4fnl4DwhwEpy72jDEqJQ0T15ZDIhBHBPq0q4IZgxr/0qNNP45EDEQsZ7SJUPU6CQe99/EDVWyHJSCZwbxNUgvjxH4NYpX7pc2fWjE/+PgJh4kiJRR6prw0tXFRCyGJO9GbNh1LDoNVajPY26YO6zyglkYLE/HGb2xExxGOcU/BkMANtWzSvaDWRnWoGr7+wcI24nOgyAbNSvdSREc0GpGGoDA22UB8CMSDsH7XBeFkmH9rs6RuCEofkN2mRiqYmKhgamYKExMjQZIU0WpqagwzU1pH2B9zcxPRZRGZ7kUcH8tkP5x68qnldeW/Z0VULCjimU8a0+pXLoAt87roZBskPdNtBq0AFcrKoVMIBHLgD3guXhf+a0KqjkcZeEWdMlMaozcIENvg+hmdRGFb+CC2wL/XHsOuo9fx4Ys/goJCdTpVoA2wiZtg4+zOQqcgPoM2YMrJ0ts5RVzo7/RDSqkFciTI2Xr97otwJqhwk0iLKExNGzada/TNUQjnWCDHIXyjpY2dFBWpNp7e/MPJlejvdJ6VpYWIfhAXRMZ0NkifJnUYx4KtpXB4yGExUqnEZkPHU1Hi9w5Jl6qFcJsAACAASURBVJHrsGzL6YhlhzksANny/7+HteyR40Mv0apvDSgqOkalQGViJJwKawtTkZKgP+SApLFLLQohM6ezERwQZBd1hhApE9mja4OcqSPnPNF/0mY8ePIWgclUWEu471/eG9W+yXjrEk6E0fDZOzBlCQWv5dAhBD5xpikJj6Ve/3/dcHZvwID/dMhIaYqeIdCnbWVQJIG03alNjtjvxAYS95daPVv5j+Z2bVEe80e2SDbGO/rhDd/8wxn4hIW0ISthmzVt9vGJNkR3Y6YuO4ChM7Yn2r0TdODEX/GNt0JlrBIRjCzpbJAzW1q45sogRKuyZkkjHIm0dpawTm0hiKGSin2QnDoiu6Ki03X/nUcIMSAm8yDGzr1Le4ouEV0bpD7aZ+LmWCs56pr9hmgPZ8wTgYEF8XhV4P9/urN1s4WF5jUL6+CSQyIQZwTo7dMxW1rc8noRxlyYwhyDcMCof99z/zhYJkCxMM7g68AJS7echvvIdclnCWlKcw4jE2PhHGTNYIv0NqlgZ28lSISIEjtbRjuhs0H5eW0PEqqau+oodh67iYdP32p7+njPRxGWTk3KYPawZjpHoHTg1B20GrgcVCgrh24gwDnrD69Fs7+9U3xnlIv7v4yjkW6YKa2QCOgvAssntUOHRqX0dwHxsHzn0Zto2H1BPM5MmlOYmqIPGhRwy4mebSoKnQx7m1QJbrOkmpH/Dt9AhyGrBIW1TjrG1JY6tKmg+dalQQXKdbv8hZuez3XJrBRrC7nYQEgWeK54+auD4OTenDG2gUhqUyxCcuESAS0gUKW0Kw6t6KOFmfRnirPXvFG25TS9MJiyFYpGA3t7K1Qt44oKRXIjjW0qOOXKCMfsaUFS6NGlYCjdQYWllEZbsP4Ebt9/ofWUTWIAuXhca8FPQUWgujCoI6Z6p3k4ffm+LpiT4m3gYKfguah8OBA/BoEduxZiKk51CEnLoZvib4sEwNAQIPGkt2enG9qyol0P5d7z1hmjf2v+RrZDXRmZM9gJMaTsWdKgTiU3IRBF3RbfOwvUmTB31RGRShDpNB2oM4gt6OnSWGH11PaoUTZPbE9J9ONInpx0SORIdgTIb6buheVROAi9TGEUsopx3iLZTZUGSAT0HIFXp6cJDYeUMigH71Z/PL58DdD7JQsKDs6RyswErrkzCgrtBpXdcODMPYyc9i/eUM5cT2ts0tmmxt19YwSply4MkvPOUWV4mDKZHMmIAHvHOerCa9HFyB0EeuSdu/RhYKJAQQ6JgEQg/gic+2ewIA1KKYPkoon45tmrj4a3ZA2HqakRSHXTELaxXFnsse2vbnBzCVPjTM5BnR+5SbTJEJ+b5AQ2jtfmjG2HorTF3QW+UTkIQJZOdrA0eso4dMO9jOMi5eESAV1BYNvf3dCwSsoRSX374auQ3L1zX9Q3yaHjCNQsnw8rJrUVnBLJPUiIrcuItcltRoq+Pgf6wnPx3O9BiDxI5uy+jAEdwzqn5ZAISATigwDpGLRrWFKcSkVtRFIUEhoqGCRJKlm0ggKC6IcYEYlxUNvcBPGxO77nfPrij8Y9F+H4Ra/4TiHPS2IEBv1RA+P71E92sinS73CrNx5C5VSOpEeAMV8eapwZD+b/IIwRuQPg0jYNYO7FOOyS3lJ5RYmAYSCwdZ47CrhkEcJHdx+8wrMXH/D1awC+BgTji38QiOKYBlElZ01vjRKFHNC0ZhGhCqmPg1gdqad97/Fb+mh+irSZHNJJ/RtiYMdqSUYmFRnQxAbaeuAK7Dx6I0Xeh2ReNJGoT4LnkpH0LvO9LVFHCFy6LWZc0yWZDZeXlwjoLQJ2qc2hUWsQpNEgOFgtNAzE1y+Kb52xsQp25qZYPKU96lbML9gO9Wn4BQSh07C12Lzvsj6ZneJtJTrrLfPcUblk5KqdSQEQ1SfOWHEIw2ZuD/ueyJFkCHDGPiD0SWY82PeLtGjUv0Cu3aoyjeYfQEYRkuxOyQtJBABYmJlgZI/a6N2mMszN9IfYlOSfu4xahw27Ioqg5f3UEwRI0nvj7D8EA2VyDK/Hb9B/8hbsO3HbIIpAkwPDeF5TwxmfDY8lAyM7P2oHIVcXaxgrGxh47XheWJ4mEZAIxBMBElhyb1Ee0wc1hrmZcTxnSdrTiPSmx7iNQrlQDv1CgAS1Jg34DYM6V09yw49d8MTAKVtx7d6zJL+2vCB7yZm6KTyWRvqljT6G6ezehAFbJIgSAYlA0iNAxYvT/myMPu0qJ/3F43FF6SDEAzRdOoUxeB+egByZk07U6eQlLzTvuwxvPvxQG6dLqBi0LZyxTfBY9DsJvMYtgiCObqqCs91eBiS9W2nQt0UuTiIQOwSI+e6/Bd1QUg/4FKSDELt7qstHdWxSBovH/p7oBYsaznHw1F10H7sBj1980GVIDNc2Bj8eqlTFg4Xno1pkzFVQrj0KM03oUQDWhouUXJlEQHcRKJovOy5sGaLzLZDkIHQfuxGrtskUg+4+TdFb5pAtLfYs6QmnHOkTbQnkHJAcPMk8f/TxS7TryImjR4ADC+CZsRcwJsqq0JgdBMdeplAFL2RAe8mLIB85iUDyILBkfBt0blomeS4ey6t+9QtE28GrsOPw9VieIQ/TNQRsrS2wbnpH1CqfL9FM23viNjoMXY13H78m2jXkxDE5B+wJFE0p3FvyKrojY3YQ6GxX9/JMw7YAPJ0EXiIgEUh6BIq75cDepb1gZ627BKfXPZ6jdud5eP1e5pOT/gnRzhVJn2H9jE6JJua06+hNdB+zHi/e+mjHYDlLfBAI5mATkDHDZBwfE5pwB6HiGCO8fjWHcfSIjzXyHImARCBhCJDS4LwRLdC5aVmw2Ln1CbtgHM9+/uYT6nSej1uSZjmOyOnW4ZRi2LesNxyzpdW6YXuO30KHoWvw/pOMHGgd3DhMyBX2EKGsOu4v9I7ptNj/1Dh1sYeiXGGcSynomFCVn0sEEgEB4sw/teFP0I+4rgwS2jl4+i56T/gHj56/1xWzpB3xRKD775Xw18jm8Tw76tNICrxl/2W46flc63PLCeOEgIZrWCfcX7QqNmfF3kGg2cLaHtcBMI3N5PIYiYBEQLsIlCrkgH/nu+uEwM6TFx8wceFebN53BV/8ArW7UDlbkiOQIa01SIE0eybtMuwTw+Zv3Rfi8DmPJF+TvOCPCHDGNiL0SYfIWBMjwypuDkKWfuawCFjIGG8ngZcISASSB4FG1QpizbSOsDBPPpZFKkgk7vxdx24mDwjyqlpFgMTEVkxuhw6NSmt1XrVag9pd/sKhM3e1Oq+cLD4IsJdcE1oV95fdi+3ZcXMQaFaXP0ozrvoP4LoT54ztauVxEgEDQMDE2Ajj+tRPFta7cPjuP3mLxr0W47bXCwNAVC6hRtm8WD+zY6yKYF+99cG6XRfwZ6fo6XFIX4EcyPZDVuHzF38JcvIiEMIZGwWPD9OBLerYmhJ3BwFQ4OzeAcBiBqhieyF5nERAIqA9BEhgZ9G434X6Y3KMB98chFvSQUgO+LV6zdSpzPDPnD9E50JMcuMv3/rAfdQ6kLT36Q1/RmsH1acMnPov5q8lGh05khMBDnYGTNUAHn/HiZUqPg5C2Dqd3DcxBu1XsyQnivLaEgE9QsDC3BQn1w9A4TxJXzcsHQQ9elBiMLVbywqYP7JFtOqhFA14/OI9KrWbjSfP36NmuXzYt6xXtDP7fA1A/e4LcOrSfcMBSw9XwhnzhSokO+4s/xhX8+PvIOTu7ApFtZkBiceoEdfVyOMlAikMgZrl82H1lPZJrsInHQTDeNCo6PXwyr7RCoKRQvnhM/fQe8ImeD56IxZOlMzLJrSJFgQqYs1fbxx8/X9RETYM8PRjFb6csf7wWLQ0PubG30HAGAXOr1qBsVWMc5lqiA/68hyJQAIRoHqE8X3rx5gPTuBlfjldOgjaRjTp50tvbyVSC+WL5o7y4lS8uO/UHXQduQ7P33yOOI6eueFdoxf6PXLOA9U6zEn6hckrRiDAwdYCwT3guSJe5BMJcBC+2eDsvoxxtAeT9QjyuZQIJAcClhameHh4YpJEEWjDCFVrcO66N9oPXiWFdpLjhmvhmorCMLxbbYzpWTfKuoPgkFD8s/cK2v65Akz5cauYM7w5erepFK0ls1YexsCpW7VgrZwiPghwsBdQG5fEg/nxJp9IuIOQp6kJ1Gk2M/D6UqshPrdRniMRSDgCreqXwLppVDus3UHh5ZCQUFGUdv3uMxCd8stXH7H39F08fPpOuxeTsyUZApVKOGPXoh5RtsqSoNKcVUcwefE+fPj8q6DS1nnuaFS9ULT2Vmo7CycueiXZmuSF/o+AcA640gJeC04nBJeEOwh09dx/FISi2sTAnRNijDxXIiARiB8CRI17Y+dImJtphxtBrdHg/PVHWLDhOK7ffAK/oGD4+AeJfLI6VA2d5HuOH3Qp7qxsGe1w6d9hUUacKEo07u+9mL7sAPwDgyPFZ+eiHqhbMX+U2AUEBsO6SD+EqmPdUZfi7kOiLZjBn0PpB4+FSxJ6De04CGSFS9fGjHOib7RMqFHyfImARCBuCGROb4MzGwchmxZY8AKDQtG450LsP3kHGvAYW9/iZqk8OjkRsLGywPoZUas1Umviwg0n8Oe0f0F/j2rE5CDcvv8SbvXGJedSU+y1ObASKlVv3F3gm1AQtOcgUNGi06uujGEmALOEGibPlwhIBGKPAOkzXN0+HNTTntBBaoyZyw0GvUnKYVgI9OtQFeP71IdFFJGma/eeoWH3hXj2KvqOuLXTO+L3esWjBGfr/qto1jfBL7CGBX4SrIZz7EGIuhMeLQtrN0ng0KKDAKBIF2P4KZMZ5/1lPUIC74w8XSIQBwTKF3fC8TX0tUv4aDVwOTbtvpTwieQMOoVAcbecOLamf7QtjZ2Gr8HKf8/GaPfonnVBf6IaI+fuFDodciQdAhzsIoxD6+O2dpwDsly7DgLN6NghLYxNljANGiTK/EmHt7ySREAvEDAxMcLxNQNQsmDOeNsbGqqG97P3WLfjPMYv3CdLDOKNpG6e6JIrA/Yt7Y3smaMWYqLIUe5qI0HiStGNzBlssWdJT7g5ZY70MAo8Nem9CNsPXddNMAzSKvaEAx3huUirtJXadxAIfKeumcGwmoFXlk6CQT6NclE6hMDv9UtgbRw7GKjO4Omrj3j49C1ue73E5duPcdfrJe4/fYfgaHLPOrRsaUosEbCzToXF41uDRL6io1KeteowBk6Jui2RNv4s6W0wZ0Rz1K/sBmOjyOlvqLCxeoe5OHvtYSwtlIclBAEO+IJrmsEr8wFgjCYhc/18buI4CHSVXF2ywYTtZhxRl7pqcyVyLolACkQgSwZbHFjeG64OGWO9+ncfv6Jhj0U4d9ETXKWAKUqsz5UH6hcCjAG9WlfB7GFNonUOqK2RSI2OnfeMdIHEm1A0X3bsWNgd6dNYRQvC6/c+qP3HX7h+75l+gaWH1nIG6kFtCY/FuxLD/MRzEMha565lAKxh4LkSw3g5p0QgJSOgUimY3L8h+ravCiNV7Df5nUdvomGPhYAsQjT4x6dlraJYPqUdzEyNo1wrFaMeOnsPvw9YHinnAUUd3FuUw5he9ZDOLnWk82g0HO8++cLXL1B0P7Tsvww3POLNz2Pw90UbC+QM/gAbhVDjv/BgfqLwWSeug0AouLTPD5jtZ5xn0gYocg6JgEQgDIHaFfJhw8xOsLI0jxMkI+bswKRF++J0jjxY/xCoXNIZ62Z0Qgb7qN/4/QKCMWnRXqzbcQHP33yK1Gcs6pYDh5b3gXXqqJ+zSzceoce4jfDxDYSxSsHjlx/gHxiif6DpicUc0IDxkTAJmIuba39lstLSOhLfQfh/JGE9A8+uJbvlNBKBFI1A3tyZcGXbcJgYx10GZeis7Zi65ECKxs/QF29nkwrrp3dCjXJ5olzqycv30X7ACjx+8ynKYyjy8OLUVJC8eHRj5opDgjtBjsRHgIMFgGM2vBYNT+yrJY2DgKYqONvXAfhSBp4usRcl55cIGDICOTKnAfWhlynsEK9lzlx5CH9OlT/m8QJPD04yMzPGvBHN0alxGVF38DOfBaUDjl3wxNBZ/+HK7SfRrqheZTdsmNEJxsZGIo1FNQ3h4/uCx9i2R+oBfLpuIudg0xGimQTvJT6JbWwSOQi0jDEKcr8sBoXtZIB0EhL7zsr5DRIB+lE+sKI3KpdwARWOxWecvvoA5VvNiM+p8hw9QCBjOhuULeKAkBC1qAcICQwO+3twCNQaDr+gEDx+9Qlf/AJjXA2lr2yszGGkKDA3UcFYpYKJEf1XgbmFKUzMTZDKwhR3H7zCnfsvY5xPHpAwBDj4eHzFFLxc4p+wmWJ3dvx+YWI3d+RHOXWrBaZZwIAcCZlGnisRSIkIGKlUcMxqL5ZuamYS4STQF9nU1DiiUt1IxX7QZVApClKnMhXnffULwt6Tt2WRYkp8gOSa9RUBfw4+G55LRgJIMorTpHcQKN3gkqYqwJcwjmz6erek3RIBvULg55+UZPjm6xVe0liJgI4gwMGI22AMQjTzkiKt8P2yk+9nwqF7VhhpTsnCRR15CqUZEgGJgERAIqBTCHCGEHD0hmfGJdomQYrNQpPPQSDrnLoWh4IFjPPCknExNrdLHiMRkAhIBCQCKQEBDvYWDKOQIcNyHB8TmhxrTl4HQTgJXajaaj7jvIp0EpLjEZDXlAhIBCQCEgFdQoAD78HRDkYZD+PumODksi35HQRaeY6+NjANpBbI3wDEvbE7udCT15UISAQkAhIBiYD2EKA2xkdQB9XDg5V3tTdt/GbSDQeBbHfslRaq0GEMmq4AEi5qHz885FkSAYmAREAiIBFIFgQ42AloNINxf8mFZDHgp4vqjoMQ5iSYQhXUkYFNAmCjCwBJGyQCEgGJgERAIpDYCHCOVWAhw+G5QmcIJXTLQRB3YIwCp9fNGOOzAWRI7Jsi55cISAQkAhIBiUAyIhDIGVsGHjwMniu+JqMdv1xaBx2EcCfhbREw9WQGVAIQe6k6XUJX2iIRkAhIBCQCEoGoEGB4yjkmw89iNZ7PDtA1oHTUQfgGU87O6WFiNJOB/65rwEl7JAISAYmAREAiEF8EOIMXOOsIz0Vnk5IdMS726raDIFbSVAUnu/FQ0JFxpI/L4uSxEgGJgERAIiAR0DEEAjjDYTDTAbg3776O2faDOXrgIHxzEkgNkvHJjPOo9Ut1GWlpm0RAIiARkAikaAQ4Y5/AMRMInqdr9QaR3Rg9cRC+me42MBWCfQ+A89IM0C/bU/TXQi5eIiARkAikbAQ4Y77QsNrwWnhaV1MKP98h/dtkhZPwdQAD+oLDNmU/cnL1EgGJgERAIqDTCDAWwoHdULOBuL/QW6dt/ck4/XMQaAF5mpqA25WEBlMYUEqfAJe2SgQkAhIBiUDKQEBEDcB6AspuePz9Qd9WrZ8OQjjK+bvZIoSTjkMTAGFi93JIBCQCEgGJgEQgeRHgYOwq1/BO8Fp8I3lNif/V9dtBoHUT+6JRUAuA9WEcBSRnQvwfBnmmREAiIBGQCCQQAY43nPF/oGAK7i15lcDZkvV0/XcQwuFz7uYM8JGSMyFZnyd5cYmAREAikGIR4IxdAw8dCEvlFK4sCdF3IAzHQQi/E67d24JrhjHOHaUypL4/ntJ+iYBEQCKg8whwAJ842D/wCxmB58s/6rzFsTTQ8BwEan907ZoXGtYD0LRmgGUssZCHSQQkAhIBiYBEINYIcICcg9PQsGm477EfOB4a65P14EBDdBDCYBe1CYFFwFVrGLiDHtwLaaJEQCIgEZAI6A8CfpyzkWDBy+C5wldfuA3iAq/hOgjhKOTongFmmingqMbAM0ISLMXl+ZDHSgQkAhIBicCPCARxsKNg6qnwWHrSEB2D8OUavoMgVkoS0m/KQNH0ZcBv4JKFUX7jJQISAYmARCBuCHDGboPzOTD134Sba/3idrb+HZ1CHIRvN6ZpUxVuWFUEM9rKAGsZTdC/B1ZaLBGQCEgEkgEBzqGsgN/7Xni+RedkmRMLj5TlIISj6NjFASrWkwFNAWROLHDlvBIBiYBEQCKg1wiQ8uJ+cD4fnkuO6fVK4mF8ynQQCCgqYlQC3aAoPRlHc8nEGI+nR54iEZAISAQMEwHOgUvgbApM2XHcWvjZkGsNorqFKddBiECkqQqu9jWh1kxjDNTtICmbDfMLL1clEZAISARiQkANxj5zDeZDYzwbD+Z/iekEQ/5cOgjhdzdvJzuEGLcC4x0YBGWzypBvvFybREAiIBGQCPwfAQ68AFM2QlFW4e7fdyQ2suXvp2eAogm26aBGIyjKcMZFW6QcEgGJgERAImCwCLAADmwEQidAbf4SD+YHGexS47gwGUGICjCnrpnBMA4MVRjnWWREIY5PljxcIiARkAjoLgLEgPiZM3YFwER4ZDgJjNHorrnJY5l0EGLC3aVzEWiMGoHx7rI1Miaw5OcSAYmAREC3EeBACMD+A9g6qN7vx90twbptcfJZJx2EWGHfVIXstulgrpAIVBcAJrE6TR4kEZAISAQkArqCAOeMnYM6tDO4ubdMJcR8W6SDEDNG3x0xRoHjC1cYqUYwjpKAJjvAJIZxwlAeLBGQCEgEkhSBjxzsOsAXQvVxp4wYxB57ubnFHqv/H+lYyxSqbPnBWV0ovAPjyBafaeQ5EgGJgERAIpA4CHAGf3C+DQo2IQin4b3EJ3GuZLizSgchoffWqaU9mPWfDLwPAGMASkKnlOdLBCQCEgGJQLwQoOLDUM7ZAahDhuLh8tvxmkWeJBCQDoJ2HgQG5545wELbgvO6DHCTdQraAVbOIhGQCEgEYoEAOQbeHOwwGNuIVOqzuLIkJBbnyUOiQUA6CFp9PCoaIY9TJoSiMBSlL+O89LeoglavIieTCEgEJAISAYEAUSI/BsMCaPhuBAc/xuNVgRIb7SAgHQTt4BjZLAxO3WqC8cFg3I1xoR4p0w+Jh7ecWSIgEUg5CARwsIcA1uKjsgDvFvimnKUn3Uqlg5DYWOdpagKNbUVAqQDOmzDAUToKiQ26nF8iIBEwQAQoWvAJDDuhYUcRHLgLj1eRiJIciYSAdBASCdhfp22qgqN1RihGZcEwF+D2TEYUkgx9eSGJgERAbxHgnCmB4OpZQOha+Fk/xfPZAXq7Gj0yXDoIyXGzihQxhl+xyuDow8DzAsgsqZyT40bIa0oEJAI6jMBHznAfHBvxOfUyvJnhp8O2GqRp0kFIzttK6Qdumw+c1QBYTcZ5+eQ0R15bIiARkAgkNwIceAiGHdAohxGI83i6kNII1KUgRxIjIB2EJAY88ssRQ+MHYyC0EIz4AMZ5QwBGOmGaNEIiIBGQCCQ+AlRfcAMajAf3PYwHwX7AFnXiX1ZeIToEpIOge88HQ+7OLlCUJmCsKuPMleoVJGeF7t0oaZFEQCKQIAR8OfAADGcQqtmCwM8X8XyLrC1IEKTaPVk6CNrFU4uzjVHg8NoeKo0ToFQB442NFCW/Fi8gp5IISAQkAkmOQCjnL8H5PnBsAzO+h4z2z3B8TGiSGyIvGCMC0kGIESLdOYBzXglA74CgkIpcw1NzQKU71klLJAISAYnArwgwBg2AIDMjo3uKkTKPFXXfIFkO9eNJkQ6CftynCCs553TPHADUA1AMQC0ANnq2DGmuREAiYPgIBAM4o9FoTiuKcgTAOcYY/ZsceoKAdBD05EZFZibnPBWA3N/aJPsCoC4IEz1ekjRdIiAR0G8EqLDQE8AcUNEh8ATAW8aY7ELQw/sqHQQ9vGlRmcw5NwPQDUAbABkBpJFaEAZ0g+VSJAK6hwClD6gN8T2AQwDGMsbe6Z6Z0qL4ICAdhPigpuPncM6pRdIZQA0A+QBQ7UJ22Qmh4zdOmicR0B8EPgE4BuAOgOMAzgMIZIyRwyCHgSAgHQQDuZFRpCDo/pp+iyS4AGgBoDmA1Aa8bLk0iYBEIBEQ4MRUABxijK0MCgq6ZGpq+hqAv3QKEgFsHZlSOgg6ciOSygzOOalKlgDQEkBBAOkBpJNUz0l1B+R1JAJ6gQB5A5Q6ICeAVBO3AjjKGHumF9ZLI7WCgHQQtAKjfk7COSfHwAlAYQClvjkO2aSzoJ/3U1otEdACAm8BXKSOAwDXvhUcPmWMSZ4CLYCrb1NIB0Hf7lgi2PutdVL55hgU0Gg0nRVFofbJrIlwOTmlREAioFsIfKToAIANAKgdkUSRNLLzQLduUnJYIx2E5EBdD67JOad2yUIAqgQHBrsGez1yDX75NofaP5BSFFInQg/uoTRRIvAzAszY+KuJvc1LM8es903SprlLPAUATjDGfCRaEoFfnhcJiUQgJgQ4wI6aFcrGjHkWlQbZuZFxHWjU1BlhDzDjmM6Xn0sEJALJhQCnrgIfKOw6V4z+VYcE3jUOVr0ODA59WgM3pXxyct0WPbmujCDoyY3SNTPJadiLPOktLEzcGUdrzmAN8NQAo64J+Vzp2g2T9qQIBDgQrAB+nPMvDDipCdXMPRly69oYCLpjOSQCcUJA/pDHCS55cGQINAVUrWwKprYORhlwVGAMtuDcGQpzAyfHQQ6JgEQgMRBgQDAH9wJnNzSK5p0K7CrX8GMIuPm6EiALCxMD9BQ0p3QQUtDNToqlUmRhC/IY26VSbFUwyshDkQkqVlQBb6wB8jIpMJUUt0Few6AR4I/AsYcDp9TgTxWueuUfqLyriysBDJCUxgZ975N2cdJBSFq8U+zVyHE4CLe0xubIyZhSk4NXZ2BEB23BgdQKYE7HpFiA5MIlAj8iEATg67eOAmItPMPVoftUCm6+Cbj9shlAmgdySAQSFQH5g5yo8MrJo0JgLxxNLS2s7UJ4aFaFw4krzJVxZGMMuTSAI8DtGRi1XsohETB0BIijkGoGHgPwZpw/UjPmoWhwXwP2SAm0flMJxwMNHQS5Pt1DQDoIundPUqRFmwFVWlQ0DrX9amoaBItQrs6lm+ihGgAABCZJREFUgJfgjJcHRz4wJZcsfkyRj4ZBLpqTwiHHPc75SSjsSggPvWphwnz9fViwCeyCKuG4rB8wyDuvX4uSDoJ+3a8Uae0YQKlkni+zmimFFKgKAtyBc2QFQwaA24Kz1GBCc0LyM6TIJ0TnFk3h/2DSKQDwiZwBhfEXag28Fc5uqTm/ZBNk9KgoroTonOXSIInAdwhIB0E+DnqJwGUUsfhqyjMxFpqRK0oaRaOx0jDmCsbyhylYciuAWUq5a728vfpktJpx7g/Gvmo4HgD8BmO4q3C8DdGwr4oxf8l82YtKuE5ERLKAUJ/urLRVFoXJZ8CwEKBCx2aA0hSAtaVbGmONUoppUBdMU5Yzlk7hzJIzEEukHBKBuCHAoeaM+zGwj4zzqxqOPaGcnTobZPPoDo7zzURPLJ2AuGEqj9ZpBGQEQadvjzROmwhwQDmOPBahqVQ5FbVSEAx5GUNaxpkpZ9zmGzNkRnDYK4yb0bW5LJTU5i3Qxbk4gxAypnD/J4C9YsA7zvgncAQwzj6Bae5zjmu+RsYPLL+m/nwCxzWSeEgXb6W0SdsISAdB24jK+fQKgTCnoaLyBa/Mjc1Nrc0UVRquVqeBglTgihnTaNJCYQ4KY66ccxcAmRiDsXQc9Oo2U6iUnAA1wD+A4z5nuMs4vDTgLxmDn0atBKhU7BM0/L1foNrHH2q/prgb+i0iIFMD+nW7pbVaQkA6CFoCUk6TIhBgs5DFzAVpLU3MQlMrTJWRcY0rYypXzjR5OGe5GYM1B1cYGH23whUyVUQQxcNIoujf5PcuHo/Lt02eKIM1AFcDTE2bPgPov5yF/XsAOPMGw33O2S1w9Z1QrjzVqFS+X1IFfG327i4VDkra4XjgL09JeQjIH6qUd8/lihMJgTGAUVU4mwfC2IKZqc2YkYklA0urUXNbhSGdhsGWabgdGLNipFnBuRkYaVdwCw6WmgEW4DAHgyUHN1fAzDhEdwY5FgY3ODjl7IMBFgjwQA7mrwC+HAgA576cMV9wBDGGAPpc4SxAw/AenPsowFuusE+M8/ehmuCPiooFGfup/b5AHVwbD6iDQL71G9wTIxeU1AhIByGpEZfXS9EIUMtmXRRRfcUHVTCsVNYwV3228jUyUjNjlUYx1nCVSuHM2BihqgAjbmKkMU6l5qHGigomnMNC4SpTQKOCwsx5qMYCimKpMGapAbdTwMm5sOCcmYHz1IwxcwAmHDDTcJiqwCmKYcLAVJyBVDjDIhscCguLbEQMTgV3DBp6MwdAoXY155w2c9HCxxjl7Hkgbe6c8wDOWJDC+BfQJk7tfRx+jMGfqfGOq1gQGA+EhgVxpg7WMARDTf+mBGoUHsCYEmQSogkF04RqGEKCmLHaVIWQ0K8IMUKAGvAPTY00am/k0jTDFskgmKK/QXLxSYnA/wBqmncKp2eggAAAAABJRU5ErkJggg==;" parent="_cwqi-WOkN7Hi492-8AW-2" vertex="1">
                    <mxGeometry y="2.8421709430404007e-13" width="160" height="80" as="geometry"/>
                </mxCell>
                <mxCell id="3IaI13MPQyuyg9ZrAYYl-35" value="" style="ellipse;whiteSpace=wrap;html=1;strokeColor=#666666;strokeWidth=2;fontColor=#000000;fillColor=none;aspect=fixed;" parent="_cwqi-WOkN7Hi492-8AW-2" vertex="1">
                    <mxGeometry y="2.8421709430404007e-13" width="160" height="80" as="geometry"/>
                </mxCell>
                <mxCell id="3IaI13MPQyuyg9ZrAYYl-32" value="" style="group;strokeColor=none;strokeWidth=1;fillColor=none;" parent="_cwqi-WOkN7Hi492-8AW-2" vertex="1" connectable="0">
                    <mxGeometry x="280" y="20.000000000000284" width="160" height="80" as="geometry"/>
                </mxCell>
                <mxCell id="Lhs4keUZgDXbYxMRt4EK-5" value="" style="endArrow=none;html=1;strokeWidth=3;strokeColor=#D79B00;" parent="1" source="Lhs4keUZgDXbYxMRt4EK-6" target="Jc9i8-Dtpv8Or8JxEpXH-12" edge="1">
                    <mxGeometry width="50" height="50" relative="1" as="geometry">
                        <mxPoint x="894.4231911844818" y="664.6203338109785" as="sourcePoint"/>
                        <mxPoint x="1000" y="499.9999999999998" as="targetPoint"/>
                    </mxGeometry>
                </mxCell>
                <mxCell id="vX9NXUb4jBfjsZwaCHv2-1" value="" style="shape=mxgraph.cisco.security.firewall;html=1;pointerEvents=1;dashed=0;fillColor=#036897;strokeWidth=1;verticalLabelPosition=bottom;verticalAlign=top;align=center;outlineConnect=0;aspect=fixed;" parent="1" vertex="1">
                    <mxGeometry x="845.5" y="140" width="39" height="90.1" as="geometry"/>
                </mxCell>
                <mxCell id="Lhs4keUZgDXbYxMRt4EK-6" value="&lt;font color=&quot;#ffffff&quot;&gt;&lt;b&gt;90&lt;br&gt;&lt;/b&gt;&lt;/font&gt;" style="rounded=0;whiteSpace=wrap;html=1;shadow=0;strokeWidth=1;fontFamily=Helvetica;dashed=1;fillColor=#D79B00;strokeColor=#FFFFFF;" parent="1" vertex="1">
                    <mxGeometry x="670" y="470.0000000000001" width="40" height="25" as="geometry"/>
                </mxCell>
                <mxCell id="s_L9ybfpZtmnkDclr_Vn-1" value="" style="endArrow=none;html=1;strokeWidth=3;strokeColor=#D79B00;" parent="1" source="Lhs4keUZgDXbYxMRt4EK-4" target="Lhs4keUZgDXbYxMRt4EK-6" edge="1">
                    <mxGeometry width="50" height="50" relative="1" as="geometry">
                        <mxPoint x="546.5368524467744" y="462.19603379404884" as="sourcePoint"/>
                        <mxPoint x="810" y="498.1214528944381" as="targetPoint"/>
                    </mxGeometry>
                </mxCell>
                <mxCell id="s_L9ybfpZtmnkDclr_Vn-4" value="" style="endArrow=none;html=1;strokeWidth=3;strokeColor=#9B59B6;" parent="1" source="Jc9i8-Dtpv8Or8JxEpXH-16" target="Jc9i8-Dtpv8Or8JxEpXH-12" edge="1">
                    <mxGeometry width="50" height="50" relative="1" as="geometry">
                        <mxPoint x="588.4292075084222" y="583.625697134944" as="sourcePoint"/>
                        <mxPoint x="860.5" y="479.9999999999998" as="targetPoint"/>
                    </mxGeometry>
                </mxCell>
                <mxCell id="Jc9i8-Dtpv8Or8JxEpXH-16" value="&lt;b&gt;&lt;font color=&quot;#ffffff&quot;&gt;11&lt;/font&gt;&lt;/b&gt;" style="rounded=0;whiteSpace=wrap;html=1;shadow=0;strokeColor=#FFFFFF;strokeWidth=1;fontFamily=Helvetica;fillColor=#9B59B6;dashed=1;" parent="1" vertex="1">
                    <mxGeometry x="840" y="600.0000000000001" width="40" height="25" as="geometry"/>
                </mxCell>
                <mxCell id="s_L9ybfpZtmnkDclr_Vn-5" value="" style="endArrow=none;html=1;strokeWidth=3;strokeColor=#9B59B6;" parent="1" source="3IaI13MPQyuyg9ZrAYYl-30" target="Jc9i8-Dtpv8Or8JxEpXH-16" edge="1">
                    <mxGeometry width="50" height="50" relative="1" as="geometry">
                        <mxPoint x="708.5526637608364" y="678.0381770820222" as="sourcePoint"/>
                        <mxPoint x="838.5729166666665" y="530" as="targetPoint"/>
                    </mxGeometry>
                </mxCell>
                <mxCell id="Jc9i8-Dtpv8Or8JxEpXH-8" value="Namings" style="" parent="0"/>
                <mxCell id="Jc9i8-Dtpv8Or8JxEpXH-20" value="" style="rounded=0;whiteSpace=wrap;html=1;strokeColor=#666666;strokeWidth=1;fillColor=#f5f5f5;fontColor=#333333;shadow=1;opacity=80;" parent="Jc9i8-Dtpv8Or8JxEpXH-8" vertex="1">
                    <mxGeometry x="580" y="150" width="195" height="140" as="geometry"/>
                </mxCell>
                <mxCell id="Jc9i8-Dtpv8Or8JxEpXH-19" value="" style="rounded=0;whiteSpace=wrap;html=1;strokeColor=#666666;strokeWidth=1;fillColor=#f5f5f5;fontColor=#333333;shadow=1;opacity=80;" parent="Jc9i8-Dtpv8Or8JxEpXH-8" vertex="1">
                    <mxGeometry x="850" y="390" width="190" height="105" as="geometry"/>
                </mxCell>
                <mxCell id="Jc9i8-Dtpv8Or8JxEpXH-18" value="" style="rounded=0;whiteSpace=wrap;html=1;strokeColor=#666666;strokeWidth=1;fillColor=#f5f5f5;fontColor=#333333;shadow=1;opacity=80;" parent="Jc9i8-Dtpv8Or8JxEpXH-8" vertex="1">
                    <mxGeometry x="1170" y="585" width="140" height="105" as="geometry"/>
                </mxCell>
                <mxCell id="Jc9i8-Dtpv8Or8JxEpXH-9" value="&lt;div style=&quot;text-align: right&quot;&gt;&lt;b&gt;&lt;font color=&quot;#c5221f&quot; style=&quot;font-size: 24px&quot;&gt;&amp;nbsp;WyoFrw00&lt;/font&gt;&lt;/b&gt;&lt;/div&gt;&lt;font&gt;&lt;div style=&quot;font-size: 15px ; text-align: right&quot;&gt;&lt;b&gt;&lt;font color=&quot;#000000&quot;&gt;Gateway/Firewall/DHCP&lt;/font&gt;&lt;/b&gt;&lt;/div&gt;&lt;font&gt;&lt;div style=&quot;font-size: 15px ; text-align: right&quot;&gt;&lt;i&gt;&lt;font color=&quot;#000000&quot;&gt;Fortigate 60D&lt;/font&gt;&lt;/i&gt;&lt;/div&gt;&lt;div style=&quot;text-align: right&quot;&gt;&lt;font&gt;&lt;font&gt;&lt;span style=&quot;font-size: 15px&quot;&gt;&lt;i&gt;&amp;nbsp; &amp;nbsp; &amp;nbsp; &amp;nbsp; &amp;nbsp; &amp;nbsp;&lt;/i&gt;&lt;/span&gt;&lt;b style=&quot;color: rgb(155 , 89 , 182) ; font-size: 14px&quot;&gt;172.20.129.254&lt;/b&gt;&lt;/font&gt;&lt;/font&gt;&lt;/div&gt;&lt;div style=&quot;text-align: right&quot;&gt;&lt;font&gt;&lt;font&gt;&lt;b style=&quot;font-size: 14px&quot;&gt;&lt;font color=&quot;#d79b00&quot;&gt;172.20.128.254&lt;/font&gt;&lt;/b&gt;&lt;b style=&quot;color: rgb(155 , 89 , 182) ; font-size: 14px&quot;&gt;&lt;br&gt;&lt;/b&gt;&lt;/font&gt;&lt;/font&gt;&lt;/div&gt;&lt;div style=&quot;text-align: right&quot;&gt;&lt;b style=&quot;font-size: 14px&quot;&gt;&lt;font color=&quot;#82b366&quot;&gt;172.20.59.254&lt;/font&gt;&lt;/b&gt;&lt;br&gt;&lt;/div&gt;&lt;div style=&quot;text-align: right&quot;&gt;&lt;br&gt;&lt;/div&gt;&lt;div style=&quot;text-align: right&quot;&gt;&lt;br&gt;&lt;/div&gt;&lt;/font&gt;&lt;/font&gt;" style="text;html=1;strokeColor=none;fillColor=none;align=left;verticalAlign=middle;rounded=0;glass=0;shadow=1;labelBorderColor=none;labelBackgroundColor=none;whiteSpace=wrap;spacingTop=0;" parent="Jc9i8-Dtpv8Or8JxEpXH-8" vertex="1">
                    <mxGeometry x="600" y="190" width="140" height="80" as="geometry"/>
                </mxCell>
                <mxCell id="Jc9i8-Dtpv8Or8JxEpXH-10" value="&lt;div&gt;&lt;b&gt;&lt;font style=&quot;font-size: 24px&quot; color=&quot;#000000&quot;&gt;WyoSl200&lt;/font&gt;&lt;/b&gt;&lt;/div&gt;&lt;font&gt;&lt;div&gt;&lt;font color=&quot;#000000&quot;&gt;&lt;font size=&quot;1&quot;&gt;&lt;b style=&quot;font-size: 16px&quot;&gt;Access&amp;nbsp;&lt;/b&gt;&lt;/font&gt;&lt;b style=&quot;font-size: 16px&quot;&gt;L2 Switch&lt;/b&gt;&lt;/font&gt;&lt;/div&gt;&lt;font&gt;&lt;div&gt;&lt;i&gt;&lt;font style=&quot;font-size: 15px&quot; color=&quot;#000000&quot;&gt;Cisco WS-C2960-24TC-L&lt;/font&gt;&lt;/i&gt;&lt;/div&gt;&lt;div&gt;&lt;b style=&quot;font-size: 21px&quot;&gt;&lt;font color=&quot;#d79b00&quot;&gt;172.20.128.100&lt;/font&gt;&lt;/b&gt;&lt;i&gt;&lt;font style=&quot;font-size: 15px&quot;&gt;&lt;br&gt;&lt;/font&gt;&lt;/i&gt;&lt;/div&gt;&lt;font&gt;&lt;br&gt;&lt;/font&gt;&lt;/font&gt;&lt;div&gt;&lt;br&gt;&lt;/div&gt;&lt;/font&gt;" style="text;html=1;strokeColor=none;fillColor=none;align=right;verticalAlign=middle;rounded=0;glass=0;shadow=1;labelBorderColor=none;labelBackgroundColor=none;whiteSpace=wrap;spacingTop=0;fontFamily=Helvetica;FType=g;" parent="Jc9i8-Dtpv8Or8JxEpXH-8" vertex="1">
                    <mxGeometry x="840" y="415" width="190" height="80" as="geometry"/>
                </mxCell>
                <mxCell id="Jc9i8-Dtpv8Or8JxEpXH-11" value="&lt;div&gt;&lt;b&gt;&lt;font style=&quot;font-size: 24px&quot;&gt;WyoSrv00&lt;/font&gt;&lt;/b&gt;&lt;/div&gt;&lt;font&gt;&lt;div&gt;&lt;span style=&quot;font-size: 16px&quot;&gt;&lt;b&gt;Web Server&lt;/b&gt;&lt;/span&gt;&lt;/div&gt;&lt;font&gt;&lt;div&gt;&lt;i&gt;&lt;font style=&quot;font-size: 15px&quot;&gt;&amp;lt;modÃ¨le&amp;gt;&lt;/font&gt;&lt;/i&gt;&lt;/div&gt;&lt;div&gt;&lt;b style=&quot;font-size: 21px&quot;&gt;&lt;font color=&quot;#82b366&quot;&gt;172.20.129.1&lt;/font&gt;&lt;/b&gt;&lt;i&gt;&lt;font style=&quot;font-size: 15px&quot;&gt;&lt;br&gt;&lt;/font&gt;&lt;/i&gt;&lt;/div&gt;&lt;font&gt;&lt;br&gt;&lt;/font&gt;&lt;/font&gt;&lt;div&gt;&lt;br&gt;&lt;/div&gt;&lt;/font&gt;" style="text;html=1;strokeColor=none;fillColor=none;align=right;verticalAlign=middle;rounded=0;glass=0;shadow=1;labelBorderColor=none;labelBackgroundColor=none;whiteSpace=wrap;spacingTop=0;fontFamily=Helvetica;FType=g;" parent="Jc9i8-Dtpv8Or8JxEpXH-8" vertex="1">
                    <mxGeometry x="1180" y="610" width="120" height="80" as="geometry"/>
                </mxCell>
                <mxCell id="3IaI13MPQyuyg9ZrAYYl-5" value="Layer 3" style="" parent="0"/>
                <mxCell id="3IaI13MPQyuyg9ZrAYYl-30" value="&lt;font color=&quot;#9b59b6&quot;&gt;&lt;b&gt;&lt;font style=&quot;font-size: 22px&quot;&gt;VLAN users&lt;/font&gt;&lt;br&gt;172.20.131.0/24&lt;/b&gt;&lt;/font&gt;" style="ellipse;whiteSpace=wrap;html=1;strokeWidth=3;fillColor=#dae8fc;strokeColor=#9B59B6;shadow=1;fontSize=30;" parent="3IaI13MPQyuyg9ZrAYYl-5" vertex="1">
                    <mxGeometry x="710" y="710.0000000000001" width="260" height="150" as="geometry"/>
                </mxCell>
                <mxCell id="Lhs4keUZgDXbYxMRt4EK-4" value="&lt;b&gt;&lt;font color=&quot;#d79b00&quot;&gt;&lt;font style=&quot;font-size: 22px&quot;&gt;VLAN management&lt;/font&gt;&lt;br&gt;172.20.128.0/24&lt;/font&gt;&lt;/b&gt;" style="ellipse;whiteSpace=wrap;html=1;strokeWidth=3;fillColor=#ffe6cc;strokeColor=#d79b00;shadow=1;fontSize=30;" parent="3IaI13MPQyuyg9ZrAYYl-5" vertex="1">
                    <mxGeometry x="290" y="370.0000000000001" width="260" height="150" as="geometry"/>
                </mxCell>
                <mxCell id="Jc9i8-Dtpv8Or8JxEpXH-15" value="Layer 2" style="" parent="0"/>
            </root>
        </mxGraphModel>
    </diagram>
</mxfile>